<svg width="12" height="12" viewBox="0 0 12 12" fill="none" xmlns="http://www.w3.org/2000/svg">
<path fill-rule="evenodd" clip-rule="evenodd" d="M8.78069 10.5004C8.70169 10.5004 8.62219 10.4819 8.54919 10.4439L5.99969 9.11195L3.45069 10.4439C3.28169 10.5314 3.07769 10.5164 2.92469 10.4044C2.77069 10.2924 2.69419 10.1029 2.72669 9.91545L3.21219 7.10145L1.15219 5.10895C1.01519 4.97645 0.965689 4.77745 1.02419 4.59545C1.08269 4.41445 1.23919 4.28195 1.42819 4.25495L4.27819 3.84095L5.55219 1.27795C5.72119 0.937949 6.27869 0.937949 6.44769 1.27795L7.72169 3.84095L10.5717 4.25495C10.7607 4.28195 10.9172 4.41445 10.9757 4.59545C11.0342 4.77745 10.9847 4.97645 10.8477 5.10895L8.78769 7.10145L9.27319 9.91545C9.30569 10.1029 9.22869 10.2924 9.07519 10.4044C8.98819 10.4684 8.88469 10.5004 8.78069 10.5004Z" fill="#231F20"/>
<mask id="mask0_2201_36003" style="mask-type:luminance" maskUnits="userSpaceOnUse" x="1" y="1" width="10" height="10">
<path fill-rule="evenodd" clip-rule="evenodd" d="M8.78069 10.5004C8.70169 10.5004 8.62219 10.4819 8.54919 10.4439L5.99969 9.11195L3.45069 10.4439C3.28169 10.5314 3.07769 10.5164 2.92469 10.4044C2.77069 10.2924 2.69419 10.1029 2.72669 9.91545L3.21219 7.10145L1.15219 5.10895C1.01519 4.97645 0.965689 4.77745 1.02419 4.59545C1.08269 4.41445 1.23919 4.28195 1.42819 4.25495L4.27819 3.84095L5.55219 1.27795C5.72119 0.937949 6.27869 0.937949 6.44769 1.27795L7.72169 3.84095L10.5717 4.25495C10.7607 4.28195 10.9172 4.41445 10.9757 4.59545C11.0342 4.77745 10.9847 4.97645 10.8477 5.10895L8.78769 7.10145L9.27319 9.91545C9.30569 10.1029 9.22869 10.2924 9.07519 10.4044C8.98819 10.4684 8.88469 10.5004 8.78069 10.5004Z" fill="white"/>
</mask>
<g mask="url(#mask0_2201_36003)">
<rect width="12" height="12" fill="#0D1C2E"/>
</g>
</svg>
