<svg width="32" height="32" viewBox="0 0 32 32" fill="none" xmlns="http://www.w3.org/2000/svg">
<g clip-path="url(#clip0_2101_96238)">
<path d="M16.0566 26.8358C21.9865 26.8358 26.7938 22.0285 26.7938 16.0985C26.7938 10.1685 21.9865 5.36133 16.0566 5.36133C10.1266 5.36133 5.31934 10.1685 5.31934 16.0985C5.31934 22.0285 10.1266 26.8358 16.0566 26.8358Z" fill="url(#paint0_linear_2101_96238)"/>
<path d="M16.0565 26.2288C21.6515 26.2288 26.187 21.6932 26.187 16.0983C26.187 10.5034 21.6515 5.96777 16.0565 5.96777C10.4616 5.96777 5.92603 10.5034 5.92603 16.0983C5.92603 21.6932 10.4616 26.2288 16.0565 26.2288Z" fill="url(#paint1_linear_2101_96238)"/>
<path d="M23.2945 4.23294C23.4921 4.37404 23.7037 4.50102 23.9154 4.62801C24.903 5.16416 25.9048 5.68621 26.8501 6.29291C25.7214 5.70032 23.8307 5.36169 22.3774 4.64211C22.7778 5.92934 23.6497 7.01785 24.8184 7.68973C25.4803 7.85875 26.1741 7.85875 26.836 7.68973C27.6406 7.50974 28.4806 7.5736 29.2487 7.87316C28.5009 6.54688 26.6667 3.44282 24.776 3.42871C24.5047 3.44807 24.2399 3.52175 23.9976 3.64535C23.7552 3.76896 23.5401 3.93999 23.3651 4.14829" fill="url(#paint2_linear_2101_96238)"/>
<path d="M28.2187 9.42484C28.3316 9.63648 28.4445 9.86222 28.5714 10.0739C29.1499 11.0333 29.7425 11.9786 30.2787 12.9804C29.6296 11.9222 28.134 10.6665 27.231 9.32607C26.9347 10.6434 27.1464 12.024 27.8236 13.192C28.8677 14.3772 30.4762 14.1515 31.5344 15.6047C31.5344 13.8411 31.5344 9.29785 28.9806 9.29785C28.7319 9.29974 28.4847 9.33776 28.2469 9.41073" fill="url(#paint3_linear_2101_96238)"/>
<path d="M27.6121 19.4711C27.9225 21.0372 29.4322 21.6298 29.6297 23.4217C30.6032 21.7709 33.1711 17.2277 29.8696 16.367V17.1007C29.8696 18.2294 29.8696 19.3441 29.8696 20.4728C29.8696 19.2171 29.1782 17.397 29.0653 15.7744C28.159 16.7703 27.656 18.068 27.6544 19.4146" fill="url(#paint4_linear_2101_96238)"/>
<path d="M24.3246 24.8179C23.8166 26.3276 24.8184 27.6397 24.0847 29.2482C25.7637 28.3029 30.2505 25.6503 27.8096 23.2941C27.6685 23.4916 27.5415 23.7032 27.4145 23.9149C26.8643 24.9025 26.3422 25.9043 25.7496 26.8496C26.3422 25.7209 26.6808 23.8302 27.4004 22.377C26.1132 22.7774 25.0247 23.6492 24.3528 24.8179" fill="url(#paint5_linear_2101_96238)"/>
<path d="M18.7936 27.7949C17.5943 28.839 17.8341 30.4475 16.3809 31.5057C18.1467 31.6317 19.918 31.3518 21.559 30.6873H21.6295C22.0713 30.4728 22.4148 30.0983 22.5904 29.6397C22.7659 29.1811 22.7604 28.6729 22.5749 28.2182C22.3514 28.3169 22.1346 28.43 21.9258 28.5568C20.9523 29.1353 20.007 29.7279 19.0052 30.2641C20.0775 29.5868 21.3332 28.1194 22.6736 27.2165C22.304 27.1293 21.9245 27.0914 21.5449 27.1036C20.5816 27.0513 19.6257 27.2976 18.8077 27.809" fill="url(#paint6_linear_2101_96238)"/>
<path d="M12.8535 27.584H12.529C10.9628 27.8944 10.3703 29.4041 8.57837 29.5875C10.2292 30.5752 14.7583 33.1431 15.633 29.8556C15.3887 29.8415 15.1437 29.8415 14.8994 29.8556C13.7706 29.8556 12.656 29.9261 11.5272 29.8556C12.783 29.8556 14.6031 29.1501 16.2256 29.0514C15.3054 28.2472 14.1551 27.7535 12.9382 27.6404L12.8535 27.584Z" fill="url(#paint7_linear_2101_96238)"/>
<path d="M8.70537 27.8098C8.50784 27.6687 8.2962 27.5418 8.08456 27.4148C7.05458 26.8081 6.09515 26.3425 5.13571 25.7499C6.26446 26.3425 8.15511 26.6811 9.60837 27.4007C9.21176 26.1114 8.33895 25.0217 7.16746 24.353C6.50553 24.184 5.81175 24.184 5.14982 24.353C4.36424 24.4917 3.55527 24.3986 2.82178 24.085C3.7671 25.764 6.41966 30.2507 8.77592 27.8098" fill="url(#paint8_linear_2101_96238)"/>
<path d="M3.76712 22.5749C3.66841 22.3514 3.5553 22.1346 3.4285 21.9258C2.85001 20.9664 2.24331 20.007 1.72127 19.0052C2.38441 20.0775 3.86589 21.3332 4.76889 22.6736C5.09021 21.3592 4.89848 19.9716 4.23273 18.7936C3.20275 17.5943 1.59428 17.8341 0.521973 16.3809C0.521973 18.3421 0.521973 23.5061 3.80945 22.5749" fill="url(#paint9_linear_2101_96238)"/>
<path d="M2.11634 15.5203C2.13045 15.2759 2.13045 15.0309 2.11634 14.7866C2.11634 13.6578 2.04579 12.5432 2.11634 11.4144C2.11634 12.6702 2.8077 14.4903 2.92057 16.1129C3.72259 15.1857 4.21576 14.0317 4.33151 12.8113C4.34554 12.7035 4.34554 12.5945 4.33151 12.4868C4.0211 10.9347 2.5114 10.3421 2.31387 8.53613C1.41087 10.2151 -1.17114 14.7584 2.11634 15.5203Z" fill="url(#paint10_linear_2101_96238)"/>
<path d="M4.23289 8.69175C4.37398 8.49422 4.50097 8.29669 4.62795 8.08505C5.11013 7.07093 5.65193 6.08626 6.25052 5.1362C5.64382 6.26495 5.34753 8.16971 4.62795 9.62297C5.91518 9.22256 7.00368 8.35075 7.67557 7.18205C8.18351 5.64413 7.18174 4.40251 7.91543 2.82227C6.23642 3.69705 1.74964 6.3496 4.23289 8.69175Z" fill="url(#paint11_linear_2101_96238)"/>
<path d="M9.42506 3.76751C9.6485 3.6688 9.8653 3.55569 10.0741 3.42888C11.0476 2.82218 11.993 2.2437 12.9806 1.72165C11.9224 2.38479 10.6667 3.86627 9.32629 4.76927C10.6414 5.07656 12.0238 4.88554 13.2064 4.23312C14.3915 3.1467 14.1094 1.55234 15.6191 0.494141H15.2099C13.0512 0.494141 8.55028 0.748109 9.42506 3.78162" fill="url(#paint12_linear_2101_96238)"/>
<path d="M18.4549 0.494274C17.9735 0.463223 17.4977 0.612006 17.1197 0.911786C16.7417 1.21157 16.4885 1.641 16.409 2.11685C16.6581 2.13094 16.9078 2.13094 17.1568 2.11685C18.2856 2.11685 19.4002 2.0463 20.529 2.11685C19.2732 2.11685 17.4531 2.80821 15.8306 2.92108C16.8182 3.84071 18.1214 4.34581 19.4708 4.33202C21.0369 4.03572 21.6295 2.52602 23.4214 2.32849C21.944 1.36489 20.2724 0.738636 18.5255 0.494274H18.4549Z" fill="url(#paint13_linear_2101_96238)"/>
<path d="M8.31038 12.9521C8.76188 12.9521 9.02995 13.1356 9.02995 13.5588C9.04293 13.6754 9.02019 13.7931 8.96476 13.8964C8.90933 13.9997 8.82381 14.0837 8.71955 14.1373C8.84334 14.1645 8.95193 14.2383 9.02285 14.3434C9.09376 14.4484 9.12156 14.5767 9.1005 14.7017C9.1005 15.2096 8.81831 15.379 8.35271 15.379H7.44971V12.9521H8.31038ZM7.70368 13.2061V14.0245H8.32449C8.63489 14.0245 8.76188 13.8834 8.76188 13.5871C8.76188 13.2908 8.60667 13.2061 8.31038 13.2061H7.70368ZM7.70368 14.2643V15.1391H8.35271C8.63489 15.1391 8.83242 15.0262 8.83242 14.6876C8.83096 14.6263 8.81662 14.566 8.79032 14.5105C8.76403 14.4551 8.72638 14.4059 8.67981 14.3659C8.63324 14.326 8.57879 14.2964 8.52001 14.2788C8.46123 14.2613 8.39942 14.2564 8.3386 14.2643H7.70368Z" fill="white"/>
<path d="M10.8217 15.1393V15.365H10.1586C9.62244 15.365 9.45312 15.0546 9.45312 14.462C9.45312 13.8694 9.74942 13.5449 10.1868 13.5449C10.6242 13.5449 10.8923 13.7848 10.8923 14.3633V14.5608H9.7212C9.7212 14.9276 9.83408 15.1252 10.1868 15.1252H10.8217M10.6242 14.3915C10.6242 13.9823 10.4972 13.8271 10.1868 13.8271C9.87641 13.8271 9.7212 13.9823 9.7212 14.3915H10.6242Z" fill="white"/>
<path d="M12.5008 13.8977H11.8799C11.6683 13.8977 11.5131 13.8977 11.5131 14.1517C11.5131 14.4056 11.5836 14.3633 11.9364 14.4197C12.2891 14.4762 12.5572 14.589 12.5572 14.9277C12.5572 15.2663 12.3032 15.4779 11.8799 15.4779H11.2874V15.2522H11.8517C12.021 15.2522 12.2891 15.2522 12.2891 14.9559C12.2891 14.6596 12.2045 14.7301 11.8517 14.6737C11.499 14.6173 11.2874 14.4479 11.2874 14.1093C11.2925 14.0343 11.3129 13.9612 11.3474 13.8944C11.3819 13.8277 11.4297 13.7687 11.4879 13.7211C11.5461 13.6735 11.6134 13.6383 11.6856 13.6177C11.7579 13.5971 11.8337 13.5916 11.9082 13.6014H12.5431L12.5008 13.8977Z" fill="white"/>
<path d="M13.3615 13.8693V14.6877C13.3615 15.0686 13.3615 15.1674 13.6154 15.1674H13.9258V15.3931H13.5731C13.2062 15.3931 13.0793 15.252 13.0793 14.7582V13.8693H12.8535V13.6436H13.0934V13.1074H13.3615V13.6436H13.9117V13.8693H13.3615Z" fill="white"/>
<path d="M15.0122 14.5328C15.0122 13.9261 15.2097 13.6016 15.8023 13.6016H16.409V16.113H16.141V15.2806C16.0052 15.3481 15.8552 15.382 15.7036 15.3793C15.1956 15.3793 15.0122 15.0548 15.0122 14.4905M15.2803 14.4905C15.2803 14.9137 15.3932 15.1395 15.7036 15.1395C15.8563 15.1372 16.0062 15.0985 16.141 15.0266V13.8555H15.8164C15.3932 13.8555 15.2803 14.0813 15.2803 14.5469" fill="white"/>
<path d="M18.3422 13.6436V15.379H18.0883V15.2661C17.9269 15.3534 17.7491 15.4063 17.5662 15.4213C17.0724 15.4213 16.9736 15.1956 16.9736 14.5466V13.6436H17.2276V14.5466C17.2276 15.0263 17.2276 15.1815 17.6086 15.1815C17.7747 15.1678 17.9371 15.1248 18.0883 15.0545V13.6436H18.3422Z" fill="white"/>
<path d="M20.1764 15.055C20.1764 15.1537 20.261 15.1961 20.3739 15.2102V15.4218C20.2996 15.428 20.2249 15.4187 20.1545 15.3944C20.084 15.3701 20.0194 15.3314 19.9647 15.2807C19.7673 15.3625 19.5574 15.4102 19.3439 15.4218C19.0194 15.4218 18.8501 15.2384 18.8501 14.8857C18.8501 14.5329 19.0194 14.406 19.3721 14.3636H19.9224V14.1097C19.9224 13.8839 19.8236 13.7851 19.612 13.7851H18.9489V13.6864L19.6261 13.6017C19.7552 13.5814 19.887 13.613 19.9928 13.6897C20.0986 13.7664 20.1697 13.8819 20.1905 14.0109C20.2043 14.0617 20.2043 14.1153 20.1905 14.1661L20.1764 15.055ZM19.4004 14.5612C19.3633 14.5593 19.3262 14.5647 19.2913 14.5771C19.2563 14.5896 19.2241 14.6088 19.1966 14.6337C19.1691 14.6586 19.1467 14.6887 19.1309 14.7223C19.115 14.7558 19.1059 14.7922 19.1041 14.8292C19.1041 15.0409 19.1887 15.1537 19.358 15.1537C19.546 15.1433 19.7314 15.1053 19.9083 15.0409V14.4624L19.4004 14.5612Z" fill="white"/>
<path d="M21.023 12.8818H20.769V15.3792H21.023V12.8818Z" fill="white"/>
<path d="M21.6013 12.9385H21.8694V13.2489H21.6013V12.9385ZM21.6013 13.6439H21.8694V15.3794H21.6013V13.6439Z" fill="white"/>
<path d="M22.7442 13.8693V14.6877C22.7442 15.0686 22.7442 15.1674 22.9982 15.1674H23.3086V15.3931H22.9559C22.6031 15.3931 22.4761 15.252 22.4761 14.7582V13.8693H22.2222V13.6436H22.4761V13.1074H22.7301V13.6436H23.2804V13.8693H22.7442Z" fill="white"/>
<path d="M23.76 13.6436L24.1974 15.125H24.3103L24.7477 13.6436H25.0158L24.2821 16.155H24.014L24.2397 15.379H23.9858L23.4919 13.6436H23.76Z" fill="white"/>
<path d="M9.32614 16.1836H9.89051V21.3617H9.29792V16.875L7.97164 17.7638L7.68945 17.2841L9.32614 16.1836Z" fill="white"/>
<path d="M14.0248 18.8498C14.0248 20.8392 13.3334 21.4318 12.1482 21.4318C10.963 21.4318 10.2576 20.8533 10.2576 18.8639C10.2576 16.8744 10.9489 16.042 12.1482 16.042C13.3475 16.042 14.0248 16.6628 14.0248 18.8639M10.8925 18.8639C10.8925 20.4864 11.344 20.8674 12.1482 20.8674C12.9525 20.8674 13.3898 20.4723 13.3898 18.8498C13.3898 17.2272 13.0089 16.6769 12.1482 16.6769C11.2876 16.6769 10.8925 17.1284 10.8925 18.8639Z" fill="white"/>
<path d="M18.1868 18.8498C18.1868 20.8392 17.4814 21.4318 16.2962 21.4318C15.111 21.4318 14.4055 20.8533 14.4055 18.8639C14.4055 16.8744 15.111 16.042 16.2962 16.042C17.4814 16.042 18.1868 16.6628 18.1868 18.8639M15.0545 18.8639C15.0545 20.4864 15.4919 20.8674 16.2962 20.8674C17.1004 20.8674 17.5378 20.4723 17.5378 18.8498C17.5378 17.2272 17.1568 16.6769 16.2962 16.6769C15.4355 16.6769 15.0545 17.1284 15.0545 18.8639Z" fill="white"/>
<path d="M19.2875 19.2594C19.2875 19.598 19.1464 19.7814 18.8642 19.7814C18.582 19.7814 18.4409 19.598 18.4409 19.2594C18.4409 18.9207 18.5679 18.7373 18.8642 18.7373C19.1605 18.7373 19.2875 18.9066 19.2875 19.2594ZM18.8642 19.598C19.0194 19.598 19.0617 19.471 19.0617 19.2594C19.0617 19.0477 19.0617 18.9348 18.8642 18.9348C18.6667 18.9348 18.6667 19.0336 18.6667 19.2594C18.6667 19.4851 18.6667 19.598 18.8642 19.598ZM19.7813 18.7514L19.9506 18.8361L19.0053 21.3475L18.8219 21.2629L19.7813 18.7514ZM20.3316 20.8255C20.3316 21.1782 20.1905 21.3616 19.9083 21.3616C19.6261 21.3616 19.485 21.1782 19.485 20.8255C19.485 20.4728 19.612 20.3176 19.9083 20.3176C20.2046 20.3176 20.3316 20.4869 20.3316 20.8255ZM19.9083 21.1641C20.0635 21.1641 20.1058 21.0512 20.1058 20.8255C20.1058 20.5997 20.1058 20.501 19.9083 20.501C19.7108 20.501 19.7108 20.6138 19.7108 20.8255C19.7108 21.0371 19.7108 21.1641 19.9083 21.1641Z" fill="white"/>
</g>
<defs>
<linearGradient id="paint0_linear_2101_96238" x1="3.86607" y1="16.0985" x2="25.3405" y2="16.0985" gradientUnits="userSpaceOnUse">
<stop stop-color="#0D9C4A"/>
<stop offset="0.02" stop-color="#0D9C4A"/>
<stop offset="0.76" stop-color="#8DC63F"/>
<stop offset="1" stop-color="#8DC63F"/>
</linearGradient>
<linearGradient id="paint1_linear_2101_96238" x1="4.54331" y1="16.0983" x2="24.8184" y2="16.0983" gradientUnits="userSpaceOnUse">
<stop stop-color="#8DC63F"/>
<stop offset="0.24" stop-color="#8DC63F"/>
<stop offset="0.98" stop-color="#0D9C4A"/>
<stop offset="1" stop-color="#0D9C4A"/>
</linearGradient>
<linearGradient id="paint2_linear_2101_96238" x1="22.3774" y1="5.64388" x2="29.2487" y2="5.64388" gradientUnits="userSpaceOnUse">
<stop stop-color="#0D9C4A"/>
<stop offset="0.02" stop-color="#0D9C4A"/>
<stop offset="0.76" stop-color="#8DC63F"/>
<stop offset="1" stop-color="#8DC63F"/>
</linearGradient>
<linearGradient id="paint3_linear_2101_96238" x1="27.1041" y1="12.4442" x2="31.5344" y2="12.4442" gradientUnits="userSpaceOnUse">
<stop stop-color="#0D9C4A"/>
<stop offset="0.02" stop-color="#0D9C4A"/>
<stop offset="0.76" stop-color="#8DC63F"/>
<stop offset="1" stop-color="#8DC63F"/>
</linearGradient>
<linearGradient id="paint4_linear_2101_96238" x1="27.6121" y1="19.598" x2="31.5062" y2="19.598" gradientUnits="userSpaceOnUse">
<stop stop-color="#0D9C4A"/>
<stop offset="0.02" stop-color="#0D9C4A"/>
<stop offset="0.76" stop-color="#8DC63F"/>
<stop offset="1" stop-color="#8DC63F"/>
</linearGradient>
<linearGradient id="paint5_linear_2101_96238" x1="24.0847" y1="25.8196" x2="28.5151" y2="25.8196" gradientUnits="userSpaceOnUse">
<stop stop-color="#0D9C4A"/>
<stop offset="0.02" stop-color="#0D9C4A"/>
<stop offset="0.76" stop-color="#8DC63F"/>
<stop offset="1" stop-color="#8DC63F"/>
</linearGradient>
<linearGradient id="paint6_linear_2101_96238" x1="16.3809" y1="29.3187" x2="22.716" y2="29.3187" gradientUnits="userSpaceOnUse">
<stop stop-color="#0D9C4A"/>
<stop offset="0.02" stop-color="#0D9C4A"/>
<stop offset="0.76" stop-color="#8DC63F"/>
<stop offset="1" stop-color="#8DC63F"/>
</linearGradient>
<linearGradient id="paint7_linear_2101_96238" x1="8.57837" y1="29.5311" x2="16.2256" y2="29.5311" gradientUnits="userSpaceOnUse">
<stop stop-color="#0D9C4A"/>
<stop offset="0.02" stop-color="#0D9C4A"/>
<stop offset="0.76" stop-color="#8DC63F"/>
<stop offset="1" stop-color="#8DC63F"/>
</linearGradient>
<linearGradient id="paint8_linear_2101_96238" x1="2.82178" y1="26.3001" x2="9.60837" y2="26.3001" gradientUnits="userSpaceOnUse">
<stop stop-color="#0D9C4A"/>
<stop offset="0.02" stop-color="#0D9C4A"/>
<stop offset="0.76" stop-color="#8DC63F"/>
<stop offset="1" stop-color="#8DC63F"/>
</linearGradient>
<linearGradient id="paint9_linear_2101_96238" x1="0.521973" y1="19.5272" x2="4.92409" y2="19.5272" gradientUnits="userSpaceOnUse">
<stop stop-color="#0D9C4A"/>
<stop offset="0.02" stop-color="#0D9C4A"/>
<stop offset="0.76" stop-color="#8DC63F"/>
<stop offset="1" stop-color="#8DC63F"/>
</linearGradient>
<linearGradient id="paint10_linear_2101_96238" x1="0.493766" y1="12.3174" x2="4.33151" y2="12.3174" gradientUnits="userSpaceOnUse">
<stop stop-color="#0D9C4A"/>
<stop offset="0.02" stop-color="#0D9C4A"/>
<stop offset="0.76" stop-color="#8DC63F"/>
<stop offset="1" stop-color="#8DC63F"/>
</linearGradient>
<linearGradient id="paint11_linear_2101_96238" x1="3.4992" y1="6.22262" x2="7.91543" y2="6.22262" gradientUnits="userSpaceOnUse">
<stop stop-color="#0D9C4A"/>
<stop offset="0.02" stop-color="#0D9C4A"/>
<stop offset="0.76" stop-color="#8DC63F"/>
<stop offset="1" stop-color="#8DC63F"/>
</linearGradient>
<linearGradient id="paint12_linear_2101_96238" x1="9.31218" y1="2.70931" x2="15.6191" y2="2.70931" gradientUnits="userSpaceOnUse">
<stop stop-color="#0D9C4A"/>
<stop offset="0.02" stop-color="#0D9C4A"/>
<stop offset="0.76" stop-color="#8DC63F"/>
<stop offset="1" stop-color="#8DC63F"/>
</linearGradient>
<linearGradient id="paint13_linear_2101_96238" x1="15.8306" y1="2.41315" x2="23.4214" y2="2.41315" gradientUnits="userSpaceOnUse">
<stop stop-color="#0D9C4A"/>
<stop offset="0.02" stop-color="#0D9C4A"/>
<stop offset="0.76" stop-color="#8DC63F"/>
<stop offset="1" stop-color="#8DC63F"/>
</linearGradient>
<clipPath id="clip0_2101_96238">
<rect width="32" height="32" fill="white"/>
</clipPath>
</defs>
</svg>
