<svg width="32" height="32" viewBox="0 0 32 32" fill="none" xmlns="http://www.w3.org/2000/svg">
<path d="M1.72123 14.9699C-0.691471 20.6137 2.00341 24.8465 2.08807 28.3597C7.111 29.178 17.4249 27.3297 21.1357 23.3509C23.6613 20.6278 24.5784 17.4391 25.5096 14.208C26.5819 10.5114 27.6824 6.75828 31.2803 3.49902C23.633 4.23271 5.64363 6.25035 1.72123 14.9699Z" fill="url(#paint0_linear_2101_96269)"/>
<path d="M2.08828 28.3597C7.11121 29.178 17.4251 27.3438 21.1359 23.3509C23.6615 20.6137 24.5786 17.4391 25.5098 14.208C26.5821 10.5114 27.6826 6.75828 31.2805 3.49902C23.6333 4.23271 5.64384 6.25035 1.73555 14.9699C-0.691257 20.656 2.00363 24.8888 2.08828 28.3597Z" stroke="#71BB7D" stroke-width="0.39" stroke-linecap="round" stroke-linejoin="round"/>
<path d="M14.5045 23.8875C14.5045 23.4501 14.6456 23.1962 14.9701 23.1962C15.2946 23.1962 15.4216 23.436 15.4216 23.8875H14.5045ZM15.0125 25.0021C14.6456 25.0021 14.5186 24.7482 14.5045 24.3813H15.9154V23.9298C15.9154 23.1256 15.5909 22.66 14.9278 22.66C14.2647 22.66 13.926 23.2103 13.926 24.1415C13.926 25.0727 14.1941 25.5524 14.9278 25.5524C15.2337 25.5454 15.5373 25.4979 15.8308 25.4113V24.9457C15.8308 24.9457 15.3229 24.9457 14.9842 24.9457M12.4304 24.9457C12.12 24.9457 12.0213 24.6071 12.0213 24.0568C12.0213 23.5066 12.1765 23.1679 12.4728 23.1679C12.6214 23.1683 12.769 23.1921 12.9102 23.2385V24.8187C12.76 24.8918 12.5971 24.935 12.4304 24.9457ZM13.4604 21.5312H12.9384V22.6882C12.7807 22.6517 12.6202 22.6281 12.4587 22.6177C11.8378 22.6177 11.4992 23.0974 11.4992 24.0286C11.4992 24.9598 11.725 25.5101 12.374 25.5101C12.5755 25.4918 12.7694 25.4239 12.9384 25.3126V25.4395H13.4886L13.4604 21.5312ZM10.4692 22.2649H11.0054V21.6018H10.4975L10.4692 22.2649ZM10.4692 25.4536H11.0054V22.6318H10.4975L10.4692 25.4536ZM9.87665 22.787C9.58969 22.7173 9.2968 22.6747 9.00187 22.66C8.8854 22.6513 8.76845 22.6681 8.65913 22.7092C8.54981 22.7503 8.45076 22.8147 8.36885 22.898C8.28694 22.9812 8.22415 23.0813 8.18484 23.1913C8.14552 23.3013 8.13063 23.4185 8.1412 23.5348C8.1412 24.1133 8.4516 24.2544 8.98776 24.3813C9.52391 24.5083 9.41104 24.5224 9.41104 24.6917C9.41104 24.8611 9.29816 25.0021 8.98776 25.0021C8.71839 24.9879 8.44995 24.9597 8.18353 24.9175V25.4254C8.46973 25.5013 8.76276 25.5486 9.05831 25.5665C9.18048 25.5847 9.30519 25.5745 9.42277 25.5367C9.54036 25.4989 9.64766 25.4345 9.73635 25.3485C9.82504 25.2626 9.89274 25.1573 9.9342 25.041C9.97566 24.9246 9.98976 24.8003 9.97541 24.6776C9.97541 24.1274 9.74966 23.9439 9.17118 23.817C8.5927 23.69 8.70557 23.69 8.70557 23.5207C8.70557 23.3514 8.83256 23.2103 9.07241 23.2103C9.31227 23.2103 9.89076 23.2949 9.89076 23.2949L9.87665 22.787ZM6.26465 25.496V23.3796C6.42438 23.3031 6.59631 23.2554 6.77259 23.2385C7.083 23.2385 7.13943 23.5771 7.13943 24.0568V25.4678H7.67559V23.9863C7.67559 23.1115 7.49217 22.5753 6.87136 22.5753C6.65796 22.6 6.45167 22.6672 6.26465 22.7729V22.6459H5.7285V25.4678L6.26465 25.496ZM4.57153 22.3073H5.10769V21.6441H4.57153V22.3073ZM4.57153 25.496H5.10769V22.6741H4.57153V25.496Z" fill="white"/>
<path d="M22.3916 18.1442C22.1571 18.0757 21.9158 18.0331 21.672 18.0172C21.3193 18.0172 20.9524 18.2712 20.9524 18.9061C20.9524 19.541 21.2205 19.6257 21.6579 19.7527C22.0953 19.8797 22.0106 19.8797 22.0106 20.049C22.0106 20.2183 21.9118 20.3735 21.6579 20.3735C21.4348 20.3557 21.2133 20.3227 20.9947 20.2747V20.7968C21.2292 20.8652 21.4705 20.9078 21.7143 20.9237C22.1517 20.9237 22.4621 20.6839 22.4621 20.0349C22.4802 19.9341 22.4769 19.8308 22.4526 19.7314C22.4284 19.632 22.3836 19.5387 22.3211 19.4577C22.2587 19.3766 22.1799 19.3095 22.09 19.2607C22.0001 19.2119 21.901 19.1824 21.799 19.1742C21.4886 19.1036 21.418 19.0472 21.418 18.8779C21.4135 18.8379 21.4181 18.7974 21.4314 18.7594C21.4447 18.7214 21.4664 18.6869 21.4949 18.6584C21.5233 18.63 21.5578 18.6083 21.5958 18.595C21.6338 18.5817 21.6743 18.5771 21.7143 18.5816C21.9462 18.5963 22.1771 18.6246 22.4057 18.6662L22.3916 18.1442ZM20.7126 18.638V18.0878H20.2046V17.2835H19.7531V18.0878H19.5133V18.638H19.7531V19.8797C19.7531 20.6274 19.9083 20.9379 20.3316 20.9379C20.4571 20.9261 20.5805 20.8977 20.6984 20.8532V20.3311H20.4021C20.2611 20.3311 20.2046 20.1618 20.2046 19.7809V18.6098L20.7126 18.638ZM18.0882 20.8673V18.7368C18.2134 18.6621 18.3527 18.614 18.4974 18.5957C18.7514 18.5957 18.7937 18.9484 18.7937 19.414V20.825H19.2452V19.414C19.2452 18.5393 19.09 18.0031 18.582 18.0031C18.4023 18.0312 18.2325 18.104 18.0882 18.2147V18.0737H17.6367V20.8955L18.0882 20.8673ZM16.0565 19.2588C16.0565 18.8073 16.1693 18.5534 16.4374 18.5534C16.7055 18.5534 16.8043 18.7932 16.8043 19.2588H16.0565ZM16.4656 20.3735C16.1693 20.3735 16.0565 20.1054 16.0565 19.7386H17.2134V19.2871C17.2134 18.4828 16.9454 18.0172 16.4092 18.0172C15.873 18.0172 15.5768 18.5675 15.5768 19.5128C15.5768 20.4581 15.8025 20.9237 16.4092 20.9237C16.6586 20.9171 16.9057 20.8743 17.1429 20.7968V20.317C16.9079 20.3293 16.6724 20.3293 16.4374 20.317M14.7584 17.6222H15.2099V16.959H14.7584V17.6222ZM14.7584 20.8109H15.2099V17.989H14.7584V20.8109ZM13.3475 20.3029C13.0935 20.3029 13.0089 19.9643 13.0089 19.3999C13.0089 18.8356 13.1358 18.5252 13.3757 18.5252C13.4976 18.5124 13.6206 18.5124 13.7425 18.5252V20.1054C13.6242 20.1838 13.4887 20.2322 13.3475 20.2465M14.194 16.832H13.8413V17.9749C13.7123 17.9383 13.5799 17.9147 13.4462 17.9043C12.9242 17.9043 12.6561 18.3982 12.6561 19.3153C12.6561 20.2324 12.8395 20.7262 13.3757 20.7262C13.5447 20.7087 13.7057 20.6453 13.8413 20.5428V20.6698H14.2928L14.194 16.832ZM11.09 19.146C11.09 18.6945 11.2029 18.4405 11.4709 18.4405C11.739 18.4405 11.8519 18.6804 11.8519 19.146H11.09ZM11.5133 20.2606C11.217 20.2606 11.1041 19.9925 11.1041 19.6257H12.2611V19.1742C12.2611 18.3699 11.993 17.9043 11.4427 17.9043C10.8924 17.9043 10.6244 18.4546 10.6244 19.3999C10.6244 20.3453 10.8501 20.8109 11.4568 20.8109C11.7062 20.8042 11.9534 20.7614 12.1905 20.6839V20.317C11.9555 20.3293 11.72 20.3293 11.485 20.317M9.41097 20.8109H9.86247V18.9625C10.0327 18.8395 10.2239 18.7486 10.4268 18.6945V18.0172C10.2119 18.0922 10.0182 18.218 9.86247 18.3841V18.0878H9.53795L9.41097 20.8109ZM8.0988 19.3999C7.88716 19.3999 7.77428 19.2306 7.77428 18.9484C7.77428 18.6662 7.88716 18.4969 8.0988 18.4969C8.31044 18.4969 8.43742 18.638 8.43742 18.9484C8.43742 19.2588 8.46564 19.4564 8.22578 19.4564L8.0988 19.3999ZM8.23989 20.8814C8.50797 20.8814 8.63495 20.8814 8.63495 21.2059C8.63495 21.5304 8.47975 21.5869 8.19756 21.5869C7.91538 21.5869 7.74607 21.474 7.74607 21.2341C7.74792 21.0947 7.79775 20.9602 7.88716 20.8532H8.23989M8.23989 22.1089C8.36948 22.1268 8.50146 22.115 8.62578 22.0743C8.7501 22.0335 8.8635 21.965 8.95735 21.8738C9.05121 21.7827 9.12306 21.6714 9.16743 21.5483C9.2118 21.4252 9.22754 21.2937 9.21344 21.1636C9.21344 20.5428 8.97358 20.3453 8.4092 20.3453C7.84483 20.3453 8.02825 20.3453 8.02825 20.1477C8.02105 20.0632 8.02105 19.9783 8.02825 19.8938H8.18346C8.66317 19.8938 8.95947 19.6398 8.95947 18.9343C8.96807 18.7911 8.93367 18.6487 8.8607 18.5252H9.157V18.0172H8.59263C8.47401 17.9775 8.35065 17.9538 8.22578 17.9467C7.81661 17.9467 7.46388 18.243 7.46388 18.9202C7.44774 19.069 7.46467 19.2195 7.51345 19.3609C7.56223 19.5024 7.64166 19.6314 7.74607 19.7386C7.67427 19.8814 7.62206 20.0333 7.59086 20.1901C7.58662 20.262 7.59693 20.3341 7.62117 20.402C7.64541 20.4698 7.68309 20.5321 7.73196 20.5851C7.63855 20.6745 7.56415 20.7817 7.51323 20.9005C7.46232 21.0194 7.43593 21.1472 7.43566 21.2765C7.43566 21.9819 7.8025 22.1936 8.32455 22.1936L8.23989 22.1089ZM5.82719 20.7826V18.7368C5.95241 18.6621 6.09171 18.614 6.23637 18.5957C6.49033 18.5957 6.53266 18.9484 6.53266 19.414V20.825H7.05471V19.414C7.05471 18.5393 6.8995 18.0031 6.39157 18.0031C6.21184 18.0312 6.04203 18.104 5.89774 18.2147V18.0737H5.46035V20.8955L5.82719 20.7826ZM4.41626 17.5939H4.85365V16.9308H4.51503L4.41626 17.5939ZM4.41626 20.7826H4.85365V17.9608H4.51503L4.41626 20.7826Z" fill="white"/>
<path d="M18.3422 16.2261H18.8783V12.3037H18.3422V16.2261ZM17.157 14.9704V15.6476C16.9907 15.7149 16.8141 15.753 16.6349 15.7605C16.4797 15.7605 16.381 15.6053 16.381 15.3795C16.381 15.1538 16.4797 15.0127 16.6773 15.0127L17.157 14.9704ZM17.7072 14.3213C17.7072 13.6441 17.4251 13.3901 16.9171 13.3901C16.5951 13.4058 16.2745 13.4435 15.9577 13.503V14.0251C15.9577 14.0251 16.4515 14.0251 16.8748 14.0251C17.0582 14.0251 17.1429 14.152 17.1429 14.3778V14.5612H16.5926C16.4832 14.5561 16.3739 14.5751 16.2727 14.6169C16.1714 14.6586 16.0805 14.7221 16.0065 14.8029C15.9325 14.8836 15.8771 14.9797 15.8443 15.0842C15.8114 15.1887 15.802 15.2992 15.8166 15.4078C15.8166 15.9439 16.127 16.2967 16.5503 16.2967C16.7886 16.2863 17.021 16.2185 17.2275 16.0991C17.3171 16.1736 17.4207 16.2294 17.5321 16.2634C17.6436 16.2973 17.7607 16.3086 17.8766 16.2967V15.7605C17.7355 15.7605 17.679 15.6617 17.6649 15.4783L17.7072 14.3213ZM14.3069 16.2261H14.843V14.3355C15.0552 14.2243 15.2839 14.1481 15.5203 14.1097V13.3901C15.2658 13.4604 15.0298 13.5856 14.8289 13.757V13.4607H14.2928L14.3069 16.2261ZM13.1499 13.4042V15.5348C12.9946 15.6096 12.8276 15.6574 12.6561 15.6758C12.3598 15.6758 12.2893 15.4219 12.2893 14.8434V13.4325H11.7531V14.8434C11.7531 15.8028 11.9365 16.2543 12.5432 16.2543C12.7566 16.2297 12.9629 16.1625 13.1499 16.0568V16.1838H13.6861V13.3619L13.1499 13.4042ZM11.358 13.9545V13.4607H10.7513V12.6988H10.2152V13.5171H9.87656V14.0674H10.1587V15.309C10.1587 16.0568 10.3563 16.3531 10.8642 16.3531C11.0166 16.3436 11.1677 16.32 11.3157 16.2825V15.7605H10.9912C10.8219 15.7605 10.7513 15.6053 10.7513 15.2243V14.0109L11.358 13.9545ZM9.00178 14.9139V15.5912C8.8303 15.6574 8.64925 15.6955 8.46562 15.7041C8.31042 15.7041 8.21165 15.5489 8.21165 15.3231C8.21165 15.0974 8.31042 14.9563 8.50795 14.9563L9.00178 14.9139ZM9.53793 14.2649C9.53793 13.5877 9.25574 13.3337 8.74781 13.3337C8.42579 13.3494 8.10523 13.3871 7.78837 13.4466V13.9686C7.78837 13.9686 8.2822 13.9686 8.70548 13.9686C8.8889 13.9686 8.98767 14.0956 8.98767 14.3213V14.5048H8.42329C8.31386 14.4997 8.20464 14.5187 8.10335 14.5604C8.00207 14.6022 7.9112 14.6657 7.83717 14.7464C7.76315 14.8272 7.70777 14.9232 7.67495 15.0278C7.64214 15.1323 7.63269 15.2428 7.64728 15.3513C7.64728 15.8875 7.95768 16.2402 8.38097 16.2402C8.62354 16.2284 8.86011 16.1608 9.07232 16.0427C9.1589 16.1175 9.25996 16.1736 9.3692 16.2076C9.47845 16.2416 9.59352 16.2527 9.70724 16.2402V15.7041C9.56615 15.7041 9.50971 15.6053 9.4956 15.4219L9.53793 14.2649ZM4.61377 16.2261H5.16403V13.0656L6.1658 16.2261H7.08291V12.3884H6.51853V15.5206L5.54499 12.3884H4.61377V16.2261Z" fill="white"/>
<defs>
<linearGradient id="paint0_linear_2101_96269" x1="8.22253" y1="31.6022" x2="22.3195" y2="-0.0769903" gradientUnits="userSpaceOnUse">
<stop stop-color="#1A5B3D"/>
<stop offset="0.01" stop-color="#1B5C3E"/>
<stop offset="0.2" stop-color="#3A7E54"/>
<stop offset="0.39" stop-color="#529966"/>
<stop offset="0.58" stop-color="#63AC73"/>
<stop offset="0.79" stop-color="#6EB77B"/>
<stop offset="1" stop-color="#71BB7D"/>
</linearGradient>
</defs>
</svg>
