<svg width="32" height="32" viewBox="0 0 32 32" fill="none" xmlns="http://www.w3.org/2000/svg">
<g clip-path="url(#clip0_2101_96276)">
<path d="M16.1128 31.5064C19.1824 31.5064 22.1831 30.5961 24.7354 28.8908C27.2877 27.1854 29.277 24.7614 30.4517 21.9255C31.6264 19.0895 31.9337 15.9689 31.3349 12.9583C30.736 9.94761 29.2579 7.18216 27.0873 5.01161C24.9168 2.84106 22.1513 1.3629 19.1407 0.764045C16.13 0.165192 13.0094 0.472545 10.1735 1.64724C7.3375 2.82193 4.91356 4.81121 3.20817 7.3635C1.50278 9.9158 0.592529 12.9165 0.592529 15.9861C0.592529 20.1023 2.2277 24.05 5.13831 26.9606C8.04893 29.8712 11.9966 31.5064 16.1128 31.5064Z" fill="#8C8F90"/>
<path d="M16 30.2509C18.8184 30.2509 21.5736 29.4151 23.9171 27.8493C26.2605 26.2834 28.0871 24.0578 29.1656 21.4539C30.2442 18.8499 30.5264 15.9846 29.9766 13.2203C29.4267 10.456 28.0695 7.91682 26.0765 5.92386C24.0836 3.9309 21.5444 2.57368 18.7801 2.02382C16.0158 1.47397 13.1505 1.75617 10.5465 2.83476C7.94262 3.91334 5.717 5.73985 4.15114 8.08333C2.58529 10.4268 1.74951 13.182 1.74951 16.0004C1.74951 19.7799 3.25089 23.4046 5.92337 26.077C8.59585 28.7495 12.2205 30.2509 16 30.2509Z" fill="#D2232A"/>
<path d="M19.6119 5.81348H12.3738V26.2015H19.6119V5.81348Z" fill="white"/>
<path d="M26.201 12.3877H5.81299V19.6258H26.201V12.3877Z" fill="white"/>
</g>
<defs>
<clipPath id="clip0_2101_96276">
<rect width="32" height="32" fill="white"/>
</clipPath>
</defs>
</svg>
