<svg width="32" height="33" viewBox="0 0 32 33" fill="none" xmlns="http://www.w3.org/2000/svg">
<g clip-path="url(#clip0_2101_96281)">
<path d="M26.1233 21.6109V21.4334H26.3229C26.9316 21.3946 27.5361 21.3056 28.1302 21.1673C28.5862 21.0567 29.0157 20.857 29.3942 20.5797C29.6619 20.3726 29.8831 20.1117 30.0436 19.8137C30.204 19.5157 30.3001 19.1874 30.3256 18.8499C30.3424 18.7397 30.3424 18.6276 30.3256 18.5173C30.2907 18.2695 30.1668 18.0429 29.977 17.8796C29.7873 17.7164 29.5447 17.6278 29.2944 17.6303C28.841 17.6061 28.3876 17.6779 27.9639 17.8409L27.4649 18.0294C27.4334 17.9901 27.4163 17.9412 27.4163 17.8908C27.4163 17.8404 27.4334 17.7916 27.4649 17.7522V17.6746C27.6645 17.0426 27.8863 16.4106 28.0858 15.7675C28.3082 15.0008 28.4056 14.2034 28.3741 13.4057C28.3348 12.4505 27.9392 11.5447 27.2653 10.8666C26.5398 10.1005 25.6078 9.56133 24.582 9.31425C23.6742 9.06128 22.7405 8.91249 21.7989 8.87073C20.9119 8.87073 20.0249 8.87073 19.1378 8.87073H17.5412L15.5231 9.01487L13.4608 9.15902C13.1614 9.15902 12.8509 9.25881 12.5405 9.31425L10.3229 9.74668L9.05882 9.97953H8.99229V9.81321L9.06991 9.75777C10.29 9.21584 11.4495 8.54687 12.5294 7.76193C13.1615 7.30388 13.765 6.80769 14.3367 6.27613C14.5585 6.06546 14.8024 5.87697 15.0353 5.6663C15.125 5.58168 15.2067 5.48887 15.2792 5.38909C15.3198 5.33205 15.3498 5.26821 15.3679 5.2006C15.382 5.17035 15.389 5.13731 15.3886 5.10395C15.3881 5.07059 15.3801 5.03777 15.3652 5.00793C15.3502 4.97809 15.3288 4.952 15.3024 4.9316C15.276 4.91121 15.2453 4.89703 15.2127 4.89013C15.0801 4.87378 14.9461 4.87378 14.8135 4.89013C14.3647 4.91928 13.9214 5.00497 13.494 5.14516C12.719 5.39163 11.9749 5.72647 11.2764 6.14308C10.3507 6.66602 9.46158 7.25134 8.6153 7.89498C8.26161 8.1526 7.96991 8.48597 7.76153 8.87073L7.58412 8.79311L7.76153 8.36068C8.28266 7.12991 8.78162 5.88805 9.18079 4.60185C9.32267 4.20813 9.41576 3.79852 9.45799 3.38216C9.48569 3.06861 9.48569 2.75323 9.45799 2.43968C9.45799 2.14031 9.29167 2.08487 9.05882 2.27336C8.80859 2.46063 8.60076 2.69869 8.44898 2.97191C7.87241 4.00309 7.34018 5.05645 6.83013 6.13199C6.36549 7.10005 5.96184 8.09622 5.62154 9.11467C5.52175 9.45839 5.43304 9.81321 5.33325 10.2235H5.15584C5.15584 10.1569 5.15584 10.1015 5.15584 10.035C5.11146 9.74096 5.11146 9.44195 5.15584 9.14793C5.23346 8.61571 5.29999 8.03913 5.35543 7.52908C5.51659 5.77546 6.09855 4.08664 7.05189 2.606C7.4178 2.0516 7.79479 1.4972 8.16069 0.95389C8.35528 0.691984 8.6011 0.472391 8.88321 0.308462C9.16532 0.144533 9.47783 0.0396947 9.80172 0.000320691H10.0346C10.1794 -0.00375795 10.3227 0.031132 10.4495 0.101347C10.5763 0.171562 10.6819 0.274527 10.7553 0.399489C10.8899 0.641137 10.9836 0.903404 11.0325 1.17565C11.1286 1.72101 11.1472 2.27719 11.0879 2.82776C11.0283 3.65475 10.794 4.4597 10.4005 5.18951H10.4781C11.3593 4.52263 12.3551 4.02281 13.4164 3.7148C14.0982 3.47613 14.805 3.31617 15.5231 3.23802C15.8502 3.18896 16.1829 3.18896 16.51 3.23802C16.6387 3.24711 16.7637 3.28527 16.8756 3.34963C16.9874 3.41399 17.0833 3.50287 17.1558 3.60959C17.2284 3.71631 17.2758 3.83809 17.2946 3.96579C17.3133 4.09348 17.3028 4.22376 17.264 4.34682C17.1837 4.80938 17.0102 5.25077 16.7539 5.64412C16.4353 6.12442 16.0634 6.56707 15.6451 6.96359C15.2652 7.32207 14.8532 7.64497 14.4143 7.92825L14.3367 8.00587H14.4809C15.371 7.82616 16.2706 7.69659 17.1752 7.61778C17.8294 7.55126 18.4836 7.5069 19.1378 7.47364C19.792 7.44038 20.5017 7.4182 21.178 7.40711C21.8544 7.39602 22.8301 7.40711 23.6506 7.51799C24.5927 7.58222 25.5196 7.7878 26.4005 8.12783C27.5743 8.58061 28.541 9.44867 29.117 10.5672C29.388 11.1107 29.5678 11.6951 29.6493 12.2969C29.7267 12.8849 29.749 13.4789 29.7158 14.071C29.6869 14.8693 29.4663 15.6489 29.0727 16.344C29.0472 16.3789 29.0249 16.416 29.0062 16.4549H29.1392C29.5812 16.3239 30.0457 16.2861 30.503 16.344C30.7325 16.3699 30.9525 16.4497 31.1453 16.5769C31.338 16.7041 31.4978 16.8751 31.6118 17.0759C31.8133 17.4135 31.9347 17.7928 31.9667 18.1847C32.0289 18.6821 31.9752 19.1871 31.8098 19.6603C31.6444 20.1335 31.3717 20.562 31.0131 20.9123C30.6025 21.3666 30.0838 21.7099 29.5051 21.9102C29.0472 22.0574 28.5611 22.0954 28.0858 22.0211C27.6867 21.9657 27.2875 21.877 26.8994 21.8104L26.3339 21.7217H26.1565" fill="white"/>
<path d="M14.7915 22.1763C14.7998 22.1223 14.8286 22.0736 14.8721 22.0405C14.9155 22.0074 14.9701 21.9925 15.0244 21.9989C15.3046 21.9772 15.5807 21.9175 15.8449 21.8215C16.3328 21.6707 16.7933 21.4423 17.2087 21.1451C17.364 21.0414 17.5056 20.9184 17.63 20.7792C17.7302 20.6595 17.7851 20.5084 17.7851 20.3523C17.7851 20.1962 17.7302 20.0451 17.63 19.9254L17.4415 19.6926C17.1149 19.343 16.8112 18.9726 16.5323 18.5838C16.0947 17.9581 15.8168 17.2348 15.7229 16.4771C15.6156 15.5666 15.8529 14.6489 16.3882 13.9046C16.882 13.1945 17.5351 12.6097 18.2953 12.1971C19.3634 11.5812 20.5773 11.2633 21.8102 11.2768C22.6763 11.2751 23.5307 11.4764 24.305 11.8644C24.5934 12.0093 24.8587 12.1961 25.0923 12.4188C25.2233 12.5644 25.3317 12.7289 25.4138 12.9067C25.4138 12.9954 25.4138 13.0509 25.3584 13.1285L24.9038 12.94C24.2395 12.6848 23.5472 12.5098 22.8414 12.4188C22.5198 12.4188 22.2094 12.3523 21.8878 12.3412C21.5119 12.3494 21.1388 12.4091 20.779 12.5186C19.8706 12.7705 19.0519 13.2741 18.4173 13.9712C18.0357 14.373 17.7546 14.8593 17.5968 15.3904C17.4056 16.0628 17.4566 16.781 17.7409 17.4195C17.9006 17.7624 18.1098 18.08 18.3618 18.362C18.5947 18.6503 18.8386 18.9497 19.0715 19.2601C19.1811 19.4202 19.274 19.5911 19.3487 19.7702C19.4566 20.0026 19.4901 20.2626 19.4444 20.5147C19.3987 20.7668 19.2762 20.9986 19.0937 21.1784C18.7752 21.495 18.3988 21.7472 17.9848 21.9213C17.3103 22.2352 16.5777 22.4051 15.8338 22.4202C15.5694 22.4203 15.3069 22.3753 15.0576 22.2872L14.7915 22.1763Z" fill="white"/>
<path d="M4.70129 10.7441C4.70541 10.8032 4.70541 10.8625 4.70129 10.9215C4.47522 11.0796 4.27028 11.2659 4.09145 11.476L3.32638 12.1967C2.91917 12.6233 2.54828 13.0832 2.21758 13.5716C1.87601 14.0656 1.63836 14.6239 1.51903 15.2126C1.4581 15.5126 1.4581 15.8218 1.51903 16.1218C1.55291 16.2665 1.61552 16.4029 1.70314 16.5229C1.79075 16.6429 1.9016 16.7441 2.02908 16.8204C2.32024 16.9902 2.63942 17.1066 2.97156 17.1641C3.39948 17.2414 3.83416 17.2748 4.26886 17.2639C4.45485 17.2474 4.63989 17.2215 4.82326 17.1863C4.84559 17.2326 4.87154 17.2771 4.90088 17.3193L4.83435 17.3748C4.17568 17.7491 3.47627 18.0468 2.7498 18.2618C2.36796 18.3698 1.97035 18.4111 1.57447 18.3838C1.24289 18.3754 0.923016 18.2594 0.663037 18.0535C0.403057 17.8475 0.21705 17.5626 0.133032 17.2417C0.00110329 16.7886 -0.0440401 16.3145 -2.44267e-05 15.8446C-2.44267e-05 15.5231 0.0775917 15.2126 0.133032 14.9021C0.220256 14.5407 0.358388 14.1935 0.543288 13.871C0.824664 13.2892 1.1992 12.7574 1.65209 12.2965C2.40084 11.5151 3.37298 10.9845 4.43518 10.7774H4.66803" fill="white"/>
<path d="M21.4221 32.4324H20.779C20.779 31.501 20.779 30.5696 20.779 29.6493C20.6792 29.9487 20.6237 30.2591 20.5461 30.5585C20.4685 30.8579 20.402 31.1794 20.3354 31.4899C20.2689 31.8004 20.1913 32.1108 20.1137 32.4324H19.4151L18.7831 29.6271V32.4324H18.0735C18.0735 32.3104 18.0735 28.8731 18.0735 28.6514H19.1823C19.3819 29.4719 19.5815 30.3146 19.781 31.1462L20.3798 28.6625H21.4886L21.4221 32.4324Z" fill="white"/>
<path d="M15.3236 31.1236V28.651H15.9667V32.432C15.745 32.432 15.5232 32.432 15.3125 32.432C15.3125 32.432 15.2349 32.432 15.2127 32.3433L14.9134 31.8221L13.9376 30.1035C13.9107 30.0613 13.877 30.0238 13.8378 29.9926V32.432H13.5163C13.4129 32.4375 13.3092 32.4375 13.2058 32.432C13.2058 32.3211 13.2058 28.8616 13.2058 28.651H13.7602C13.7995 28.6457 13.8394 28.6538 13.8736 28.6739C13.9077 28.694 13.9342 28.725 13.9487 28.7618L14.6473 29.9815C14.8357 30.3253 15.0353 30.669 15.2349 31.0127L15.3125 31.1347" fill="white"/>
<path d="M1.70764 24.8814V27.2986H1.10889V23.5176C1.23085 23.5176 1.34173 23.5176 1.45261 23.5176C1.5635 23.5176 1.69655 23.5176 1.77417 23.5176C1.85178 23.5176 1.90722 23.6839 1.96266 23.7837C2.35074 24.4711 2.73882 25.1586 3.13799 25.8461C3.1582 25.893 3.19326 25.9319 3.23778 25.9569V23.5176H3.89198V27.3097H3.1269C2.6723 26.5003 2.2066 25.6908 1.7409 24.8814" fill="white"/>
<path d="M7.76171 32.4327H7.01881C6.5642 31.6233 6.09851 30.8139 5.63281 30.0045V32.4327H4.96753C4.96753 32.3108 4.96753 28.8624 4.96753 28.6406H5.38887C5.68825 28.6406 5.61063 28.6406 5.76587 28.8513C6.16503 29.5609 6.5642 30.2706 6.97446 30.9802C7.00092 31.0323 7.03883 31.0778 7.08534 31.1133V28.6739C7.30163 28.6346 7.52324 28.6346 7.73953 28.6739L7.76171 32.4327Z" fill="white"/>
<path d="M4.43516 30.4259C4.44068 30.7677 4.39203 31.1083 4.29101 31.4349C4.19309 31.7514 3.99786 32.0289 3.73309 32.2279C3.46832 32.427 3.14751 32.5375 2.81631 32.5437C2.59572 32.563 2.37349 32.5387 2.16231 32.4721C1.95113 32.4055 1.75514 32.298 1.58554 32.1556C1.26923 31.8679 1.07156 31.4725 1.03114 31.0468C0.936886 30.6307 0.936886 30.1989 1.03114 29.7828C1.10864 29.4776 1.26548 29.1984 1.48575 28.9734C1.74734 28.7248 2.08991 28.5791 2.4504 28.5631C2.65931 28.5245 2.87351 28.5245 3.08242 28.5631C3.39033 28.6268 3.67212 28.7813 3.89148 29.0065C4.11083 29.2318 4.25771 29.5176 4.31319 29.8271C4.31319 30.06 4.37972 30.3039 4.40189 30.4259M3.68117 30.5589C3.68117 30.3594 3.68117 30.193 3.61464 30.0267C3.59198 29.8188 3.49914 29.6247 3.35142 29.4766C3.2037 29.3284 3.00992 29.2351 2.80201 29.2118C2.59411 29.1886 2.38449 29.2369 2.2077 29.3487C2.03091 29.4606 1.89751 29.6293 1.82947 29.8271C1.74939 30.0626 1.71184 30.3104 1.71859 30.5589C1.71414 30.8258 1.76708 31.0905 1.87383 31.3351C1.96835 31.5361 2.134 31.6949 2.33878 31.7809C2.54355 31.8669 2.77294 31.874 2.98263 31.8008C3.13023 31.7558 3.26333 31.6727 3.36847 31.5598C3.47362 31.4468 3.54706 31.3081 3.58138 31.1577C3.58138 30.947 3.64791 30.7364 3.68117 30.5589Z" fill="white"/>
<path d="M4.43513 25.4134C4.43303 25.136 4.47036 24.8597 4.54601 24.5928C4.60663 24.3666 4.71802 24.1571 4.87172 23.9803C5.02543 23.8036 5.2174 23.6642 5.43305 23.5727C5.7109 23.4534 6.01464 23.407 6.31543 23.4381C6.61623 23.4691 6.90409 23.5766 7.1517 23.7502C7.45087 23.9696 7.66292 24.2877 7.75045 24.6483C7.88344 25.1346 7.88344 25.6477 7.75045 26.1341C7.6654 26.5176 7.44195 26.8563 7.12283 27.0854C6.8037 27.3146 6.41131 27.418 6.02072 27.3759C5.6309 27.3787 5.25373 27.2378 4.96125 26.98C4.66876 26.7223 4.48147 26.3659 4.43513 25.9788C4.42983 25.9124 4.42983 25.8457 4.43513 25.7793C4.43513 25.6573 4.43513 25.5353 4.43513 25.4134ZM5.15585 25.4134C5.15869 25.663 5.20367 25.9105 5.28891 26.1452C5.35526 26.3232 5.47508 26.4763 5.63191 26.5835C5.78875 26.6907 5.97491 26.7467 6.16486 26.7439C6.35398 26.7407 6.53727 26.6779 6.68859 26.5644C6.83991 26.4509 6.95153 26.2926 7.00755 26.1119C7.05744 25.9607 7.09089 25.8046 7.10734 25.6462C7.14807 25.3241 7.11002 24.9968 6.99646 24.6926C6.94823 24.5545 6.8644 24.4315 6.75343 24.3361C6.64246 24.2407 6.50828 24.1763 6.36445 24.1493C6.24788 24.1163 6.12578 24.1075 6.00568 24.1234C5.88558 24.1394 5.77002 24.1798 5.66613 24.2421C5.56224 24.3044 5.47222 24.3874 5.40162 24.4859C5.33102 24.5843 5.28134 24.6962 5.25565 24.8146C5.21073 25.0121 5.17741 25.212 5.15585 25.4134Z" fill="white"/>
<path d="M28.4741 27.2992V23.5292H28.5517C29.0174 23.5292 29.4831 23.5292 29.9488 23.5292C30.2732 23.5117 30.5926 23.6156 30.8447 23.8205C31.0967 24.0255 31.2636 24.3169 31.3127 24.638C31.4851 25.2395 31.4618 25.8802 31.2461 26.4676C31.1557 26.7235 30.9872 26.9447 30.7644 27.0998C30.5416 27.255 30.2757 27.3363 30.0043 27.3324H28.4741M29.1948 24.1945V26.6117H29.2614C29.472 26.6117 29.6716 26.6117 29.8823 26.6117C29.978 26.621 30.0746 26.6101 30.1658 26.5798C30.2571 26.5494 30.341 26.5003 30.412 26.4355C30.4831 26.3707 30.5397 26.2917 30.5784 26.2037C30.617 26.1156 30.6367 26.0204 30.6363 25.9243C30.681 25.6117 30.681 25.2943 30.6363 24.9818C30.6232 24.8242 30.5819 24.6702 30.5143 24.5272C30.4786 24.4298 30.4177 24.3436 30.3378 24.2774C30.258 24.2112 30.162 24.1673 30.0597 24.1502C29.765 24.1169 29.4674 24.1169 29.1727 24.1502" fill="white"/>
<path d="M28.4407 31.213L29.1392 31.1354C29.1429 31.2055 29.1429 31.2759 29.1392 31.346C29.1777 31.4877 29.2613 31.6131 29.3773 31.7031C29.4933 31.7931 29.6355 31.8429 29.7823 31.845C29.9186 31.8614 30.0563 31.8614 30.1926 31.845C30.2721 31.823 30.3445 31.7809 30.4028 31.7226C30.4611 31.6643 30.5033 31.5918 30.5252 31.5124C30.5605 31.4325 30.5641 31.3423 30.5352 31.2599C30.5064 31.1776 30.4473 31.1092 30.37 31.0688C30.2602 31.0131 30.145 30.9685 30.0263 30.9358L29.4719 30.7695L29.1614 30.6475C28.9819 30.5367 28.8377 30.377 28.7457 30.1871C28.6538 29.9972 28.618 29.785 28.6424 29.5754C28.6669 29.3659 28.7506 29.1677 28.8838 29.004C29.0169 28.8404 29.194 28.7181 29.3942 28.6516C29.7149 28.5745 30.0493 28.5745 30.37 28.6516C30.6036 28.7248 30.8065 28.8733 30.9469 29.0739C31.0873 29.2745 31.1573 29.5159 31.1461 29.7604H30.4587C30.4587 29.7604 30.4587 29.6607 30.4587 29.6052C30.4335 29.5078 30.38 29.4201 30.305 29.353C30.2301 29.2859 30.1369 29.2425 30.0373 29.2282C29.8605 29.1728 29.6709 29.1728 29.494 29.2282C29.4285 29.247 29.3706 29.2861 29.3288 29.3399C29.2869 29.3937 29.2633 29.4595 29.2612 29.5276C29.2607 29.5919 29.2809 29.6547 29.3188 29.7066C29.3568 29.7585 29.4104 29.7968 29.4719 29.8159C29.6189 29.8828 29.7709 29.9384 29.9265 29.9822L30.6028 30.204C30.7927 30.2687 30.9628 30.381 31.097 30.5301C31.2312 30.6793 31.325 30.8603 31.3695 31.0559C31.4139 31.2515 31.4076 31.4552 31.351 31.6477C31.2945 31.8402 31.1896 32.015 31.0464 32.1555C30.9063 32.3094 30.7257 32.4209 30.5252 32.477C30.1629 32.5805 29.7788 32.5805 29.4164 32.477C29.2258 32.4386 29.0486 32.3508 28.9027 32.2224C28.7567 32.094 28.6471 31.9294 28.5848 31.7452C28.5294 31.59 28.4961 31.4236 28.4518 31.2462" fill="white"/>
<path d="M18.772 26.0786L19.4594 26.0121C19.4728 26.0763 19.4913 26.1394 19.5149 26.2006C19.5464 26.3408 19.6232 26.4667 19.7334 26.5589C19.8436 26.6511 19.9812 26.7044 20.1247 26.7106C20.2647 26.7267 20.4061 26.7267 20.5461 26.7106C20.6713 26.6792 20.7789 26.5995 20.8454 26.4889C20.8807 26.4437 20.9052 26.3911 20.9171 26.3351C20.929 26.279 20.9279 26.221 20.914 26.1654C20.9001 26.1098 20.8738 26.0582 20.8369 26.0143C20.8 25.9704 20.7537 25.9356 20.7013 25.9123C20.582 25.8517 20.4552 25.8069 20.3243 25.7792C20.0693 25.6905 19.8142 25.624 19.5592 25.5242C19.3607 25.4416 19.1922 25.3001 19.0764 25.1189C18.9606 24.9376 18.9031 24.7253 18.9116 24.5104C18.92 24.2955 18.994 24.0883 19.1237 23.9168C19.2534 23.7452 19.4324 23.6174 19.6368 23.5506C20.0153 23.4285 20.4226 23.4285 20.8011 23.5506C21.0244 23.6335 21.215 23.786 21.3448 23.9858C21.4746 24.1855 21.5367 24.4216 21.5218 24.6594H20.8343C20.8343 24.5817 20.8343 24.5263 20.7678 24.4598C20.74 24.373 20.6874 24.2963 20.6165 24.2391C20.5455 24.182 20.4593 24.1469 20.3686 24.1382C20.1947 24.0889 20.0104 24.0889 19.8364 24.1382C19.7145 24.1937 19.6036 24.2602 19.5925 24.4154C19.5864 24.4849 19.6039 24.5544 19.6421 24.6127C19.6803 24.6711 19.737 24.7148 19.8032 24.737C19.9696 24.8059 20.1399 24.8652 20.3132 24.9144C20.5239 24.992 20.7456 25.0364 20.9452 25.1251C21.2393 25.1456 21.5131 25.2822 21.7065 25.5047C21.8999 25.7272 21.997 26.0174 21.9764 26.3115C21.9558 26.6055 21.8193 26.8794 21.5968 27.0728C21.3743 27.2662 21.0841 27.3632 20.79 27.3427C20.4274 27.4444 20.0438 27.4444 19.6812 27.3427C19.4554 27.2841 19.252 27.1603 19.0962 26.9868C18.9404 26.8132 18.8392 26.5976 18.8052 26.3669C18.8052 26.2893 18.8052 26.2228 18.8052 26.1119" fill="white"/>
<path d="M15.7117 23.5176H18.3063C18.3063 23.7283 18.3063 23.9278 18.3063 24.1496H16.4546C16.4199 24.422 16.4199 24.6977 16.4546 24.9701H18.1843V25.6354H16.4324V26.6111C17.0755 26.6111 17.7186 26.6111 18.3617 26.6111V27.2542H15.7117V23.5176Z" fill="white"/>
<path d="M27.8087 24.1607H25.9238V24.9702C26.0714 24.9815 26.2197 24.9815 26.3673 24.9702H27.72V25.6133H25.9238V26.6112C26.0901 26.6112 26.2564 26.6112 26.4117 26.6112C26.5669 26.6112 26.7332 26.6112 26.8884 26.6112H27.8642V27.2543H25.2363C25.2363 27.1434 25.2363 23.695 25.2363 23.4844H27.8198L27.8087 24.1607Z" fill="white"/>
<path d="M12.7956 32.4327H12.0416C11.9418 32.1444 11.8309 31.8672 11.7311 31.5789H10.334C10.2453 31.8672 10.1455 32.1444 10.0457 32.4327H9.29175C9.73527 31.1576 10.1788 29.9047 10.6334 28.6406H11.3319C11.4096 28.6406 11.4206 28.6961 11.4428 28.7404L11.6535 29.3392L12.7623 32.2775C12.7623 32.2775 12.7623 32.3662 12.7623 32.4327M11.465 30.9137C11.3098 30.4628 11.1545 30.0192 10.9993 29.5831C10.8552 30.0266 10.711 30.4701 10.5558 30.9137H11.465Z" fill="white"/>
<path d="M25.2918 32.4324H24.5267L24.2273 31.5897H22.8191C22.7304 31.8669 22.6306 32.1441 22.5419 32.4324H21.7769L23.1185 28.6514H23.8947C24.3493 29.8932 24.815 31.1573 25.2918 32.4324ZM23.5288 29.5938L23.0963 30.9022H24.0277C23.8725 30.4476 23.7173 30.0152 23.5731 29.5828" fill="white"/>
<path d="M6.04288 20.9559C6.19812 20.7785 6.34226 20.6454 6.46423 20.4902C6.61333 20.32 6.74346 20.1341 6.85231 19.9358C7.00619 19.7005 7.07066 19.4179 7.03405 19.1392C6.99743 18.8606 6.86214 18.6042 6.65272 18.4167C6.27341 18.0371 5.80998 17.7522 5.29999 17.5851L5.06714 17.5075H5.14475C5.60183 17.3402 6.09279 17.287 6.57511 17.3523C6.8995 17.3753 7.21199 17.4839 7.48077 17.667C7.74954 17.8501 7.96502 18.1011 8.10525 18.3945C8.23933 18.6512 8.30935 18.9365 8.30935 19.2261C8.30935 19.5157 8.23933 19.801 8.10525 20.0577C7.97629 20.365 7.76536 20.631 7.49552 20.8265C7.22567 21.022 6.90727 21.1397 6.57511 21.1665C6.46533 21.1886 6.35225 21.1886 6.24247 21.1665C6.24247 21.1665 6.14268 21.0778 6.1205 21.0557" fill="white"/>
<path d="M24.7373 23.5181V24.1612H23.7283V27.2991H23.0186C23.0186 27.1217 23.0186 26.9554 23.0186 26.778V24.1612H21.9986C21.9875 23.9544 21.9875 23.7471 21.9986 23.5403C22.1205 23.5403 24.3492 23.4848 24.7484 23.5403" fill="white"/>
<path d="M9.8683 27.2986H9.16976V24.1607H8.14966V23.5176H10.8995V24.1496H9.87939C9.87939 24.3714 9.87939 24.5709 9.87939 24.7705V27.2986H9.8683Z" fill="white"/>
<path d="M13.5162 24.161H12.485C12.4741 23.9541 12.4741 23.7469 12.485 23.54C12.607 23.54 15.0686 23.54 15.246 23.54V24.1721H14.2259V27.31H13.5273L13.5162 24.161Z" fill="white"/>
<path d="M26.3895 31.7892H28.1525V32.4323H25.7131C25.7131 32.3103 25.7131 28.9063 25.7131 28.6846H26.4006C26.4006 29.0283 26.4006 29.3609 26.4006 29.7047V31.7892H26.3895Z" fill="white"/>
<path d="M17.3859 28.6514H16.6985V32.4324H17.3859V28.6514Z" fill="white"/>
</g>
<defs>
<clipPath id="clip0_2101_96281">
<rect width="32" height="32.5877" fill="white"/>
</clipPath>
</defs>
</svg>
