<svg width="24" height="25" viewBox="0 0 24 25" fill="none" xmlns="http://www.w3.org/2000/svg">
<path d="M18.304 6.11562C16.6205 4.42812 14.3786 3.5 11.996 3.5C7.07812 3.5 3.07634 7.50179 3.07634 12.4196C3.07634 13.9906 3.48616 15.5254 4.26562 16.8795L3 21.5L7.72902 20.2585C9.0308 20.9696 10.4973 21.3433 11.992 21.3433H11.996C16.9098 21.3433 21 17.3415 21 12.4237C21 10.0411 19.9875 7.80312 18.304 6.11562ZM11.996 19.8406C10.6621 19.8406 9.35625 19.483 8.2192 18.808L7.95 18.6473L5.14554 19.3826L5.89286 16.6464L5.71607 16.3652C4.97277 15.1839 4.58304 13.8219 4.58304 12.4196C4.58304 8.33348 7.90982 5.0067 12 5.0067C13.9808 5.0067 15.8411 5.77812 17.2393 7.18036C18.6375 8.58259 19.4973 10.4429 19.4933 12.4237C19.4933 16.5138 16.0821 19.8406 11.996 19.8406ZM16.0621 14.2879C15.8411 14.1754 14.7442 13.6371 14.5393 13.5647C14.3344 13.4884 14.1857 13.4522 14.0371 13.6772C13.8884 13.9022 13.4625 14.4004 13.3299 14.5531C13.2013 14.7018 13.0688 14.7219 12.8478 14.6094C11.5379 13.9545 10.6781 13.4402 9.81429 11.9576C9.58527 11.5638 10.0433 11.592 10.4692 10.7402C10.5415 10.5915 10.5054 10.4629 10.4491 10.3504C10.3929 10.2379 9.94688 9.14107 9.76205 8.69509C9.58125 8.26116 9.39643 8.32143 9.25982 8.31339C9.13125 8.30536 8.98259 8.30536 8.83393 8.30536C8.68527 8.30536 8.4442 8.36161 8.23929 8.58259C8.03437 8.80759 7.45982 9.34598 7.45982 10.4429C7.45982 11.5397 8.25938 12.6004 8.36786 12.7491C8.48036 12.8978 9.93884 15.1478 12.1768 16.1161C13.5911 16.7268 14.1455 16.779 14.8527 16.6746C15.2826 16.6103 16.1705 16.1362 16.3554 15.6138C16.5402 15.0915 16.5402 14.6455 16.4839 14.5531C16.4317 14.4527 16.283 14.3964 16.0621 14.2879Z" fill="#0D1C2E"/>
</svg>
