<svg width="33" height="86" viewBox="0 0 33 86" fill="none" xmlns="http://www.w3.org/2000/svg">
<g filter="url(#filter0_d_1911_98619)">
<path d="M73 2H32.7603L32.1955 7.1936C31.3265 15.1841 25.5081 21.7876 17.6591 23.7163C-1.86758 28.5144 -1.90211 56.1595 17.6499 60.8546C25.512 62.7426 31.3433 69.3221 32.2365 77.313L32.7603 82H73V2Z" fill="#3D3D3D"/>
</g>
<path fill-rule="evenodd" clip-rule="evenodd" d="M23.6667 41.3334H15.7567L18.1787 38.4268C18.4147 38.1441 18.376 37.7234 18.0934 37.4881C17.81 37.2521 17.39 37.2908 17.1547 37.5734L13.8214 41.5734C13.7954 41.6048 13.782 41.6414 13.7627 41.6761C13.7467 41.7041 13.7274 41.7281 13.7154 41.7588C13.6854 41.8354 13.6674 41.9161 13.6674 41.9974C13.6674 41.9981 13.6667 41.9994 13.6667 42.0001C13.6667 42.0008 13.6674 42.0021 13.6674 42.0028C13.6674 42.0841 13.6854 42.1648 13.7154 42.2414C13.7274 42.2721 13.7467 42.2961 13.7627 42.3241C13.782 42.3588 13.7954 42.3954 13.8214 42.4268L17.1547 46.4268C17.2867 46.5848 17.476 46.6668 17.6667 46.6668C17.8174 46.6668 17.9687 46.6161 18.0934 46.5121C18.376 46.2768 18.4147 45.8561 18.1787 45.5734L15.7567 42.6668H23.6667C24.0347 42.6668 24.3334 42.3681 24.3334 42.0001C24.3334 41.6321 24.0347 41.3334 23.6667 41.3334Z" fill="#231F20"/>
<mask id="mask0_1911_98619" style="mask-type:luminance" maskUnits="userSpaceOnUse" x="13" y="37" width="12" height="10">
<path fill-rule="evenodd" clip-rule="evenodd" d="M23.6667 41.3334H15.7567L18.1787 38.4268C18.4147 38.1441 18.376 37.7234 18.0934 37.4881C17.81 37.2521 17.39 37.2908 17.1547 37.5734L13.8214 41.5734C13.7954 41.6048 13.782 41.6414 13.7627 41.6761C13.7467 41.7041 13.7274 41.7281 13.7154 41.7588C13.6854 41.8354 13.6674 41.9161 13.6674 41.9974C13.6674 41.9981 13.6667 41.9994 13.6667 42.0001C13.6667 42.0008 13.6674 42.0021 13.6674 42.0028C13.6674 42.0841 13.6854 42.1648 13.7154 42.2414C13.7274 42.2721 13.7467 42.2961 13.7627 42.3241C13.782 42.3588 13.7954 42.3954 13.8214 42.4268L17.1547 46.4268C17.2867 46.5848 17.476 46.6668 17.6667 46.6668C17.8174 46.6668 17.9687 46.6161 18.0934 46.5121C18.376 46.2768 18.4147 45.8561 18.1787 45.5734L15.7567 42.6668H23.6667C24.0347 42.6668 24.3334 42.3681 24.3334 42.0001C24.3334 41.6321 24.0347 41.3334 23.6667 41.3334Z" fill="white"/>
</mask>
<g mask="url(#mask0_1911_98619)">
<rect x="11" y="34" width="16" height="16" fill="white"/>
</g>
<defs>
<filter id="filter0_d_1911_98619" x="0" y="0" width="76" height="86" filterUnits="userSpaceOnUse" color-interpolation-filters="sRGB">
<feFlood flood-opacity="0" result="BackgroundImageFix"/>
<feColorMatrix in="SourceAlpha" type="matrix" values="0 0 0 0 0 0 0 0 0 0 0 0 0 0 0 0 0 0 127 0" result="hardAlpha"/>
<feOffset dy="1"/>
<feGaussianBlur stdDeviation="1.5"/>
<feColorMatrix type="matrix" values="0 0 0 0 0 0 0 0 0 0 0 0 0 0 0 0 0 0 0.3 0"/>
<feBlend mode="normal" in2="BackgroundImageFix" result="effect1_dropShadow_1911_98619"/>
<feBlend mode="normal" in="SourceGraphic" in2="effect1_dropShadow_1911_98619" result="shape"/>
</filter>
</defs>
</svg>
