<svg width="33" height="86" viewBox="0 0 33 86" fill="none" xmlns="http://www.w3.org/2000/svg">
<g filter="url(#filter0_d_1911_98618)">
<path d="M-40 2H0.239655L0.804489 7.1936C1.6735 15.1841 7.49189 21.7876 15.3409 23.7163C34.8676 28.5144 34.9021 56.1595 15.3501 60.8546C7.48798 62.7426 1.65674 69.3221 0.763546 77.313L0.239655 82H-40V2Z" fill="#3D3D3D"/>
</g>
<path fill-rule="evenodd" clip-rule="evenodd" d="M9.33334 42.6668H17.2433L14.8213 45.5735C14.5853 45.8562 14.624 46.2768 14.9067 46.5122C15.19 46.7482 15.61 46.7095 15.846 46.4268L19.1793 42.4268C19.2053 42.3955 19.218 42.3588 19.2373 42.3242C19.2533 42.2962 19.2727 42.2722 19.2847 42.2415C19.3147 42.1648 19.3327 42.0842 19.3327 42.0028C19.3327 42.0022 19.3333 42.0008 19.3333 42.0002C19.3333 41.9995 19.3327 41.9982 19.3327 41.9975C19.3327 41.9162 19.3147 41.8355 19.2847 41.7588C19.2727 41.7282 19.2533 41.7042 19.2373 41.6762C19.218 41.6415 19.2053 41.6048 19.1793 41.5735L15.846 37.5735C15.7133 37.4155 15.524 37.3335 15.3333 37.3335C15.1827 37.3335 15.0313 37.3842 14.9067 37.4882C14.624 37.7235 14.5853 38.1442 14.8213 38.4268L17.2433 41.3335H9.33334C8.96534 41.3335 8.66667 41.6322 8.66667 42.0002C8.66667 42.3682 8.96534 42.6668 9.33334 42.6668Z" fill="#231F20"/>
<mask id="mask0_1911_98618" style="mask-type:luminance" maskUnits="userSpaceOnUse" x="8" y="37" width="12" height="10">
<path fill-rule="evenodd" clip-rule="evenodd" d="M9.33334 42.6668H17.2433L14.8213 45.5735C14.5853 45.8562 14.624 46.2768 14.9067 46.5122C15.19 46.7482 15.61 46.7095 15.846 46.4268L19.1793 42.4268C19.2053 42.3955 19.218 42.3588 19.2373 42.3242C19.2533 42.2962 19.2727 42.2722 19.2847 42.2415C19.3147 42.1648 19.3327 42.0842 19.3327 42.0028C19.3327 42.0022 19.3333 42.0008 19.3333 42.0002C19.3333 41.9995 19.3327 41.9982 19.3327 41.9975C19.3327 41.9162 19.3147 41.8355 19.2847 41.7588C19.2727 41.7282 19.2533 41.7042 19.2373 41.6762C19.218 41.6415 19.2053 41.6048 19.1793 41.5735L15.846 37.5735C15.7133 37.4155 15.524 37.3335 15.3333 37.3335C15.1827 37.3335 15.0313 37.3842 14.9067 37.4882C14.624 37.7235 14.5853 38.1442 14.8213 38.4268L17.2433 41.3335H9.33334C8.96534 41.3335 8.66667 41.6322 8.66667 42.0002C8.66667 42.3682 8.96534 42.6668 9.33334 42.6668Z" fill="white"/>
</mask>
<g mask="url(#mask0_1911_98618)">
<rect x="6" y="34" width="16" height="16" fill="white"/>
</g>
<defs>
<filter id="filter0_d_1911_98618" x="-43" y="0" width="76" height="86" filterUnits="userSpaceOnUse" color-interpolation-filters="sRGB">
<feFlood flood-opacity="0" result="BackgroundImageFix"/>
<feColorMatrix in="SourceAlpha" type="matrix" values="0 0 0 0 0 0 0 0 0 0 0 0 0 0 0 0 0 0 127 0" result="hardAlpha"/>
<feOffset dy="1"/>
<feGaussianBlur stdDeviation="1.5"/>
<feColorMatrix type="matrix" values="0 0 0 0 0 0 0 0 0 0 0 0 0 0 0 0 0 0 0.3 0"/>
<feBlend mode="normal" in2="BackgroundImageFix" result="effect1_dropShadow_1911_98618"/>
<feBlend mode="normal" in="SourceGraphic" in2="effect1_dropShadow_1911_98618" result="shape"/>
</filter>
</defs>
</svg>
