<svg width="24" height="25" viewBox="0 0 24 25" fill="none" xmlns="http://www.w3.org/2000/svg">
<path fill-rule="evenodd" clip-rule="evenodd" d="M9.9995 19.9279C9.7735 19.9279 9.5465 19.8519 9.3595 19.6959C8.9355 19.3429 8.8785 18.7119 9.2315 18.2879L13.7075 12.9169L9.3925 7.55487C9.0465 7.12487 9.1145 6.49487 9.5445 6.14887C9.9755 5.80287 10.6045 5.87087 10.9515 6.30087L15.7795 12.3009C16.0775 12.6719 16.0735 13.2019 15.7685 13.5679L10.7685 19.5679C10.5705 19.8049 10.2865 19.9279 9.9995 19.9279Z" fill="black"/>
<mask id="mask0_2090_67592" style="mask-type:luminance" maskUnits="userSpaceOnUse" x="9" y="5" width="8" height="15">
<path fill-rule="evenodd" clip-rule="evenodd" d="M9.9995 19.9279C9.7735 19.9279 9.5465 19.8519 9.3595 19.6959C8.9355 19.3429 8.8785 18.7119 9.2315 18.2879L13.7075 12.9169L9.3925 7.55487C9.0465 7.12487 9.1145 6.49487 9.5445 6.14887C9.9755 5.80287 10.6045 5.87087 10.9515 6.30087L15.7795 12.3009C16.0775 12.6719 16.0735 13.2019 15.7685 13.5679L10.7685 19.5679C10.5705 19.8049 10.2865 19.9279 9.9995 19.9279Z" fill="white"/>
</mask>
<g mask="url(#mask0_2090_67592)">
<rect y="0.927856" width="24" height="24" fill="black"/>
</g>
</svg>
