<svg width="32" height="33" fill="none" xmlns="http://www.w3.org/2000/svg">
	<path fill-rule="evenodd" clip-rule="evenodd" d="M21.333 20.928c0 .733-.6 1.333-1.334 1.333-.733 0-1.333-.6-1.333-1.333v-8c0-.734.6-1.334 1.333-1.334.734 0 1.334.6 1.334 1.334v8zm-8 0c0 .733-.6 1.333-1.334 1.333-.733 0-1.333-.6-1.333-1.333v-8c0-.734.6-1.334 1.333-1.334.734 0 1.334.6 1.334 1.334v8zm2.666-17.333c-7.352 0-13.333 5.98-13.333 13.333 0 7.352 5.981 13.333 13.333 13.333 7.354 0 13.334-5.981 13.334-13.333S23.353 3.595 15.999 3.595z" fill="#000"/>
	<mask id="a" style="mask-type:alpha" maskUnits="userSpaceOnUse" x="2" y="3" width="28" height="28">
		<path fill-rule="evenodd" clip-rule="evenodd" d="M21.333 20.928c0 .733-.6 1.333-1.334 1.333-.733 0-1.333-.6-1.333-1.333v-8c0-.734.6-1.334 1.333-1.334.734 0 1.334.6 1.334 1.334v8zm-8 0c0 .733-.6 1.333-1.334 1.333-.733 0-1.333-.6-1.333-1.333v-8c0-.734.6-1.334 1.333-1.334.734 0 1.334.6 1.334 1.334v8zm2.666-17.333c-7.352 0-13.333 5.98-13.333 13.333 0 7.352 5.981 13.333 13.333 13.333 7.354 0 13.334-5.981 13.334-13.333S23.353 3.595 15.999 3.595z" fill="#fff"/>
	</mask>
</svg>
