<svg width="24" height="24" fill="none" xmlns="http://www.w3.org/2000/svg">
	<path fill-rule="evenodd" clip-rule="evenodd" d="M11.5 14.6l2.809-2.6L11.5 9.4v5.2zm4.48-1.421l-3.642 3.37a1.698 1.698 0 0 1-1.157.45 1.74 1.74 0 0 1-.693-.144A1.607 1.607 0 0 1 9.5 15.37V8.63c0-.65.378-1.22.988-1.484a1.71 1.71 0 0 1 1.851.306l3.641 3.37c.331.305.52.735.52 1.178 0 .444-.189.873-.52 1.179zM12 1.999C6.486 2 2 6.488 2 12c0 5.515 4.486 10 10 10s10-4.485 10-10c0-5.512-4.486-10-10-10z" fill="#231F20"/>
	<mask id="a" style="mask-type:alpha" maskUnits="userSpaceOnUse" x="2" y="1" width="20" height="21">
		<path fill-rule="evenodd" clip-rule="evenodd" d="M11.5 14.6l2.809-2.6L11.5 9.4v5.2zm4.48-1.421l-3.642 3.37a1.698 1.698 0 0 1-1.157.45 1.74 1.74 0 0 1-.693-.144A1.607 1.607 0 0 1 9.5 15.37V8.63c0-.65.378-1.22.988-1.484a1.71 1.71 0 0 1 1.851.306l3.641 3.37c.331.305.52.735.52 1.178 0 .444-.189.873-.52 1.179zM12 1.999C6.486 2 2 6.488 2 12c0 5.515 4.486 10 10 10s10-4.485 10-10c0-5.512-4.486-10-10-10z" fill="#fff"/>
	</mask>
</svg>
