<svg width="24" height="25" viewBox="0 0 24 25" fill="none" xmlns="http://www.w3.org/2000/svg">
<path fill-rule="evenodd" clip-rule="evenodd" d="M13.8287 19.9278C13.5367 19.9278 13.2467 19.8008 13.0487 19.5548L8.22066 13.5548C7.92266 13.1838 7.92666 12.6538 8.23166 12.2878L13.2317 6.28784C13.5847 5.86384 14.2157 5.80684 14.6407 6.15984C15.0647 6.51284 15.1217 7.14384 14.7677 7.56784L10.2927 12.9388L14.6077 18.3008C14.9537 18.7308 14.8857 19.3608 14.4547 19.7068C14.2707 19.8558 14.0487 19.9278 13.8287 19.9278" fill="black"/>
<mask id="mask0_2038_98793" style="mask-type:luminance" maskUnits="userSpaceOnUse" x="8" y="5" width="7" height="15">
<path fill-rule="evenodd" clip-rule="evenodd" d="M13.8287 19.9278C13.5367 19.9278 13.2467 19.8008 13.0487 19.5548L8.22066 13.5548C7.92266 13.1838 7.92666 12.6538 8.23166 12.2878L13.2317 6.28784C13.5847 5.86384 14.2157 5.80684 14.6407 6.15984C15.0647 6.51284 15.1217 7.14384 14.7677 7.56784L10.2927 12.9388L14.6077 18.3008C14.9537 18.7308 14.8857 19.3608 14.4547 19.7068C14.2707 19.8558 14.0487 19.9278 13.8287 19.9278" fill="white"/>
</mask>
<g mask="url(#mask0_2038_98793)">
<rect y="0.927856" width="24" height="24" fill="black"/>
</g>
</svg>
