<svg width="24" height="25" viewBox="0 0 24 25" fill="none" xmlns="http://www.w3.org/2000/svg">
<path fill-rule="evenodd" clip-rule="evenodd" d="M13.8287 19.5005C13.5367 19.5005 13.2467 19.3735 13.0487 19.1275L8.22066 13.1275C7.92266 12.7565 7.92666 12.2265 8.23166 11.8605L13.2317 5.86047C13.5847 5.43647 14.2157 5.37947 14.6407 5.73247C15.0647 6.08547 15.1217 6.71647 14.7677 7.14047L10.2927 12.5115L14.6077 17.8735C14.9537 18.3035 14.8857 18.9335 14.4547 19.2795C14.2707 19.4285 14.0487 19.5005 13.8287 19.5005Z" fill="white"/>
<mask id="mask0_2090_66439" style="mask-type:luminance" maskUnits="userSpaceOnUse" x="8" y="5" width="7" height="15">
<path fill-rule="evenodd" clip-rule="evenodd" d="M13.8287 19.5005C13.5367 19.5005 13.2467 19.3735 13.0487 19.1275L8.22066 13.1275C7.92266 12.7565 7.92666 12.2265 8.23166 11.8605L13.2317 5.86047C13.5847 5.43647 14.2157 5.37947 14.6407 5.73247C15.0647 6.08547 15.1217 6.71647 14.7677 7.14047L10.2927 12.5115L14.6077 17.8735C14.9537 18.3035 14.8857 18.9335 14.4547 19.2795C14.2707 19.4285 14.0487 19.5005 13.8287 19.5005Z" fill="white"/>
</mask>
<g mask="url(#mask0_2090_66439)">
<rect y="0.5" width="24" height="24" fill="white"/>
</g>
</svg>
