<svg width="32" height="86" viewBox="0 0 32 86" fill="none" xmlns="http://www.w3.org/2000/svg">
<g filter="url(#filter0_d_1911_98792)">
<path d="M-41 2H-0.760345L-0.195511 7.1936C0.673504 15.1841 6.49189 21.7876 14.3409 23.7163C33.8676 28.5144 33.9021 56.1595 14.3501 60.8546C6.48798 62.7426 0.656742 69.3221 -0.236454 77.313L-0.760345 82H-41V2Z" fill="#D1C1A0"/>
</g>
<path fill-rule="evenodd" clip-rule="evenodd" d="M8.33334 42.6666H16.2433L13.8213 45.5733C13.5853 45.8559 13.624 46.2766 13.9067 46.5119C14.19 46.7479 14.61 46.7093 14.846 46.4266L18.1793 42.4266C18.2053 42.3953 18.218 42.3586 18.2373 42.3239C18.2533 42.2959 18.2727 42.2719 18.2847 42.2413C18.3147 42.1646 18.3327 42.0839 18.3327 42.0026C18.3327 42.0019 18.3333 42.0006 18.3333 41.9999C18.3333 41.9993 18.3327 41.9979 18.3327 41.9973C18.3327 41.9159 18.3147 41.8353 18.2847 41.7586C18.2727 41.7279 18.2533 41.7039 18.2373 41.6759C18.218 41.6413 18.2053 41.6046 18.1793 41.5733L14.846 37.5733C14.7133 37.4153 14.524 37.3333 14.3333 37.3333C14.1827 37.3333 14.0313 37.3839 13.9067 37.4879C13.624 37.7233 13.5853 38.1439 13.8213 38.4266L16.2433 41.3333H8.33334C7.96534 41.3333 7.66667 41.6319 7.66667 41.9999C7.66667 42.3679 7.96534 42.6666 8.33334 42.6666Z" fill="#231F20"/>
<mask id="mask0_1911_98792" style="mask-type:luminance" maskUnits="userSpaceOnUse" x="7" y="37" width="12" height="10">
<path fill-rule="evenodd" clip-rule="evenodd" d="M8.33334 42.6666H16.2433L13.8213 45.5733C13.5853 45.8559 13.624 46.2766 13.9067 46.5119C14.19 46.7479 14.61 46.7093 14.846 46.4266L18.1793 42.4266C18.2053 42.3953 18.218 42.3586 18.2373 42.3239C18.2533 42.2959 18.2727 42.2719 18.2847 42.2413C18.3147 42.1646 18.3327 42.0839 18.3327 42.0026C18.3327 42.0019 18.3333 42.0006 18.3333 41.9999C18.3333 41.9993 18.3327 41.9979 18.3327 41.9973C18.3327 41.9159 18.3147 41.8353 18.2847 41.7586C18.2727 41.7279 18.2533 41.7039 18.2373 41.6759C18.218 41.6413 18.2053 41.6046 18.1793 41.5733L14.846 37.5733C14.7133 37.4153 14.524 37.3333 14.3333 37.3333C14.1827 37.3333 14.0313 37.3839 13.9067 37.4879C13.624 37.7233 13.5853 38.1439 13.8213 38.4266L16.2433 41.3333H8.33334C7.96534 41.3333 7.66667 41.6319 7.66667 41.9999C7.66667 42.3679 7.96534 42.6666 8.33334 42.6666Z" fill="white"/>
</mask>
<g mask="url(#mask0_1911_98792)">
<rect x="5" y="34" width="16" height="16" fill="#3D3D3D"/>
</g>
<defs>
<filter id="filter0_d_1911_98792" x="-44" y="0" width="76" height="86" filterUnits="userSpaceOnUse" color-interpolation-filters="sRGB">
<feFlood flood-opacity="0" result="BackgroundImageFix"/>
<feColorMatrix in="SourceAlpha" type="matrix" values="0 0 0 0 0 0 0 0 0 0 0 0 0 0 0 0 0 0 127 0" result="hardAlpha"/>
<feOffset dy="1"/>
<feGaussianBlur stdDeviation="1.5"/>
<feColorMatrix type="matrix" values="0 0 0 0 0 0 0 0 0 0 0 0 0 0 0 0 0 0 0.3 0"/>
<feBlend mode="normal" in2="BackgroundImageFix" result="effect1_dropShadow_1911_98792"/>
<feBlend mode="normal" in="SourceGraphic" in2="effect1_dropShadow_1911_98792" result="shape"/>
</filter>
</defs>
</svg>
