<svg width="48" height="48" viewBox="0 0 48 48" fill="none" xmlns="http://www.w3.org/2000/svg">
<path fill-rule="evenodd" clip-rule="evenodd" d="M35.1232 42.0018C34.8072 42.0018 34.4892 41.9278 34.1972 41.7758L23.9992 36.4478L13.8032 41.7758C13.1272 42.1258 12.3112 42.0658 11.6992 41.6178C11.0832 41.1698 10.7772 40.4118 10.9072 39.6618L12.8492 28.4058L4.60925 20.4358C4.06125 19.9058 3.86325 19.1098 4.09725 18.3818C4.33125 17.6578 4.95725 17.1278 5.71325 17.0198L17.1132 15.3638L22.2092 5.1118C22.8852 3.7518 25.1152 3.7518 25.7912 5.1118L30.8872 15.3638L42.2872 17.0198C43.0432 17.1278 43.6692 17.6578 43.9032 18.3818C44.1372 19.1098 43.9392 19.9058 43.3912 20.4358L35.1512 28.4058L37.0932 39.6618C37.2232 40.4118 36.9152 41.1698 36.3012 41.6178C35.9532 41.8738 35.5392 42.0018 35.1232 42.0018Z" fill="#231F20"/>
<mask id="mask0_1425_96307" style="mask-type:luminance" maskUnits="userSpaceOnUse" x="4" y="4" width="40" height="39">
<path fill-rule="evenodd" clip-rule="evenodd" d="M35.1232 42.0018C34.8072 42.0018 34.4892 41.9278 34.1972 41.7758L23.9992 36.4478L13.8032 41.7758C13.1272 42.1258 12.3112 42.0658 11.6992 41.6178C11.0832 41.1698 10.7772 40.4118 10.9072 39.6618L12.8492 28.4058L4.60925 20.4358C4.06125 19.9058 3.86325 19.1098 4.09725 18.3818C4.33125 17.6578 4.95725 17.1278 5.71325 17.0198L17.1132 15.3638L22.2092 5.1118C22.8852 3.7518 25.1152 3.7518 25.7912 5.1118L30.8872 15.3638L42.2872 17.0198C43.0432 17.1278 43.6692 17.6578 43.9032 18.3818C44.1372 19.1098 43.9392 19.9058 43.3912 20.4358L35.1512 28.4058L37.0932 39.6618C37.2232 40.4118 36.9152 41.1698 36.3012 41.6178C35.9532 41.8738 35.5392 42.0018 35.1232 42.0018Z" fill="white"/>
</mask>
<g mask="url(#mask0_1425_96307)">
<rect width="48" height="48" fill="white"/>
</g>
</svg>
