<svg width="48" height="48" viewBox="0 0 48 48" fill="none" xmlns="http://www.w3.org/2000/svg">
<path fill-rule="evenodd" clip-rule="evenodd" d="M14.0004 21.9985C14.0004 20.8945 14.8964 19.9985 16.0004 19.9985C17.1044 19.9985 18.0004 20.8945 18.0004 21.9985C18.0004 23.1025 17.1044 23.9985 16.0004 23.9985C14.8964 23.9985 14.0004 23.1025 14.0004 21.9985ZM24.0004 19.9985C22.8964 19.9985 22.0004 20.8945 22.0004 21.9985C22.0004 23.1025 22.8964 23.9985 24.0004 23.9985C25.1044 23.9985 26.0004 23.1025 26.0004 21.9985C26.0004 20.8945 25.1044 19.9985 24.0004 19.9985ZM32.0004 19.9985C30.8964 19.9985 30.0004 20.8945 30.0004 21.9985C30.0004 23.1025 30.8964 23.9985 32.0004 23.9985C33.1044 23.9985 34.0004 23.1025 34.0004 21.9985C34.0004 20.8945 33.1044 19.9985 32.0004 19.9985ZM39.7972 24.5883C38.7832 31.0963 33.5372 36.4943 27.0392 37.7123C23.9012 38.3043 20.7052 37.9663 17.8052 36.7383C16.9832 36.3903 16.1332 36.2143 15.2992 36.2143C14.9192 36.2143 14.5432 36.2503 14.1732 36.3243L8.5492 37.4483L9.6752 31.8143C9.9112 30.6443 9.7672 29.3923 9.2612 28.1943C8.0332 25.2943 7.6972 22.1003 8.2872 18.9603C9.5052 12.4623 14.9012 7.21634 21.4112 6.20234C26.5912 5.39634 31.6572 7.02834 35.3132 10.6843C38.9712 14.3423 40.6052 19.4103 39.7972 24.5883ZM38.1432 7.85634C33.5732 3.28834 27.2532 1.25034 20.7952 2.24834C12.6412 3.52034 5.8812 10.0883 4.3552 18.2223C3.6192 22.1383 4.0432 26.1263 5.5772 29.7523C5.7712 30.2143 5.8312 30.6443 5.7552 31.0303L4.0392 39.6063C3.9072 40.2623 4.1132 40.9403 4.5872 41.4123C4.9652 41.7923 5.4752 41.9983 6.0012 41.9983C6.1312 41.9983 6.2612 41.9863 6.3932 41.9603L14.9592 40.2463C15.4512 40.1523 15.9272 40.2903 16.2452 40.4223C19.8752 41.9563 23.8632 42.3783 27.7752 41.6443C35.9112 40.1183 42.4792 33.3583 43.7512 25.2043C44.7552 18.7503 42.7132 12.4263 38.1432 7.85634Z" fill="#231F20"/>
<mask id="mask0_2101_96449" style="mask-type:alpha" maskUnits="userSpaceOnUse" x="4" y="2" width="41" height="40">
<path fill-rule="evenodd" clip-rule="evenodd" d="M14.0004 21.9985C14.0004 20.8945 14.8964 19.9985 16.0004 19.9985C17.1044 19.9985 18.0004 20.8945 18.0004 21.9985C18.0004 23.1025 17.1044 23.9985 16.0004 23.9985C14.8964 23.9985 14.0004 23.1025 14.0004 21.9985ZM24.0004 19.9985C22.8964 19.9985 22.0004 20.8945 22.0004 21.9985C22.0004 23.1025 22.8964 23.9985 24.0004 23.9985C25.1044 23.9985 26.0004 23.1025 26.0004 21.9985C26.0004 20.8945 25.1044 19.9985 24.0004 19.9985ZM32.0004 19.9985C30.8964 19.9985 30.0004 20.8945 30.0004 21.9985C30.0004 23.1025 30.8964 23.9985 32.0004 23.9985C33.1044 23.9985 34.0004 23.1025 34.0004 21.9985C34.0004 20.8945 33.1044 19.9985 32.0004 19.9985ZM39.7972 24.5883C38.7832 31.0963 33.5372 36.4943 27.0392 37.7123C23.9012 38.3043 20.7052 37.9663 17.8052 36.7383C16.9832 36.3903 16.1332 36.2143 15.2992 36.2143C14.9192 36.2143 14.5432 36.2503 14.1732 36.3243L8.5492 37.4483L9.6752 31.8143C9.9112 30.6443 9.7672 29.3923 9.2612 28.1943C8.0332 25.2943 7.6972 22.1003 8.2872 18.9603C9.5052 12.4623 14.9012 7.21634 21.4112 6.20234C26.5912 5.39634 31.6572 7.02834 35.3132 10.6843C38.9712 14.3423 40.6052 19.4103 39.7972 24.5883ZM38.1432 7.85634C33.5732 3.28834 27.2532 1.25034 20.7952 2.24834C12.6412 3.52034 5.8812 10.0883 4.3552 18.2223C3.6192 22.1383 4.0432 26.1263 5.5772 29.7523C5.7712 30.2143 5.8312 30.6443 5.7552 31.0303L4.0392 39.6063C3.9072 40.2623 4.1132 40.9403 4.5872 41.4123C4.9652 41.7923 5.4752 41.9983 6.0012 41.9983C6.1312 41.9983 6.2612 41.9863 6.3932 41.9603L14.9592 40.2463C15.4512 40.1523 15.9272 40.2903 16.2452 40.4223C19.8752 41.9563 23.8632 42.3783 27.7752 41.6443C35.9112 40.1183 42.4792 33.3583 43.7512 25.2043C44.7552 18.7503 42.7132 12.4263 38.1432 7.85634Z" fill="white"/>
</mask>
<g mask="url(#mask0_2101_96449)">
<rect width="48" height="48" fill="white"/>
</g>
</svg>
