<svg width="48" height="48" viewBox="0 0 48 48" fill="none" xmlns="http://www.w3.org/2000/svg">
<path fill-rule="evenodd" clip-rule="evenodd" d="M10.4638 21.28C11.1718 22.128 12.4318 22.244 13.2798 21.536L21.9998 14.27V38C21.9998 39.104 22.8958 40 23.9998 40C25.1038 40 25.9998 39.104 25.9998 38V14.27L34.7198 21.536C35.5698 22.244 36.8298 22.128 37.5358 21.28C38.2438 20.432 38.1298 19.17 37.2798 18.464L25.2798 8.464C25.1858 8.384 25.0738 8.346 24.9698 8.286C24.8878 8.238 24.8158 8.182 24.7258 8.146C24.4918 8.054 24.2478 8 23.9998 8C23.7518 8 23.5078 8.054 23.2738 8.146C23.1838 8.182 23.1118 8.238 23.0298 8.286C22.9258 8.346 22.8138 8.384 22.7198 8.464L10.7198 18.464C9.87182 19.17 9.75582 20.432 10.4638 21.28Z" fill="#231F20"/>
<mask id="mask0_2101_96442" style="mask-type:alpha" maskUnits="userSpaceOnUse" x="10" y="8" width="29" height="32">
<path fill-rule="evenodd" clip-rule="evenodd" d="M10.4638 21.28C11.1718 22.128 12.4318 22.244 13.2798 21.536L21.9998 14.27V38C21.9998 39.104 22.8958 40 23.9998 40C25.1038 40 25.9998 39.104 25.9998 38V14.27L34.7198 21.536C35.5698 22.244 36.8298 22.128 37.5358 21.28C38.2438 20.432 38.1298 19.17 37.2798 18.464L25.2798 8.464C25.1858 8.384 25.0738 8.346 24.9698 8.286C24.8878 8.238 24.8158 8.182 24.7258 8.146C24.4918 8.054 24.2478 8 23.9998 8C23.7518 8 23.5078 8.054 23.2738 8.146C23.1838 8.182 23.1118 8.238 23.0298 8.286C22.9258 8.346 22.8138 8.384 22.7198 8.464L10.7198 18.464C9.87182 19.17 9.75582 20.432 10.4638 21.28Z" fill="white"/>
</mask>
<g mask="url(#mask0_2101_96442)">
<rect width="48" height="48" fill="white"/>
</g>
</svg>
