<svg width="20" height="20" viewBox="0 0 20 20" fill="none" xmlns="http://www.w3.org/2000/svg">
<path fill-rule="evenodd" clip-rule="evenodd" d="M5.50008 3.33366C4.30508 3.33366 3.33341 4.30533 3.33341 5.50033C3.33341 11.657 8.34258 16.667 14.5001 16.667C15.6942 16.667 16.6667 15.6953 16.6667 14.5003C16.6667 14.4078 16.6609 14.317 16.6492 14.227L12.7992 13.3437C12.7226 13.4903 12.6384 13.6495 12.5617 13.7978C12.1817 14.5228 11.9067 15.0495 11.2051 14.767C8.45008 13.8003 6.20091 11.5503 5.22175 8.76199C4.92425 8.10783 5.49091 7.81116 6.20925 7.43616C6.35508 7.35949 6.51258 7.27699 6.65675 7.20199L5.77341 3.35116C5.68091 3.33949 5.59091 3.33366 5.50008 3.33366ZM14.5001 18.3337C7.42341 18.3337 1.66675 12.577 1.66675 5.50033C1.66675 3.38616 3.38591 1.66699 5.50008 1.66699C5.71675 1.66699 5.93091 1.68533 6.13841 1.72116C6.34091 1.75366 6.54425 1.80533 6.74258 1.87366C7.01341 1.96783 7.21758 2.19533 7.28175 2.47533L8.42258 7.44533C8.48591 7.71866 8.40675 8.00533 8.21175 8.20866C8.09841 8.32699 8.09591 8.32949 7.06258 8.87033C7.89925 10.682 9.35341 12.1312 11.1284 12.9395C11.6701 11.9053 11.6734 11.902 11.7917 11.7887C11.9951 11.5937 12.2834 11.5178 12.5551 11.5778L17.5259 12.7187C17.8051 12.7828 18.0326 12.9862 18.1259 13.257C18.1942 13.4537 18.2459 13.657 18.2801 13.8662C18.3151 14.072 18.3334 14.2853 18.3334 14.5003C18.3334 16.6145 16.6134 18.3337 14.5001 18.3337Z" fill="white"/>
<mask id="mask0_2101_96356" style="mask-type:luminance" maskUnits="userSpaceOnUse" x="1" y="1" width="18" height="18">
<path fill-rule="evenodd" clip-rule="evenodd" d="M5.50008 3.33366C4.30508 3.33366 3.33341 4.30533 3.33341 5.50033C3.33341 11.657 8.34258 16.667 14.5001 16.667C15.6942 16.667 16.6667 15.6953 16.6667 14.5003C16.6667 14.4078 16.6609 14.317 16.6492 14.227L12.7992 13.3437C12.7226 13.4903 12.6384 13.6495 12.5617 13.7978C12.1817 14.5228 11.9067 15.0495 11.2051 14.767C8.45008 13.8003 6.20091 11.5503 5.22175 8.76199C4.92425 8.10783 5.49091 7.81116 6.20925 7.43616C6.35508 7.35949 6.51258 7.27699 6.65675 7.20199L5.77341 3.35116C5.68091 3.33949 5.59091 3.33366 5.50008 3.33366ZM14.5001 18.3337C7.42341 18.3337 1.66675 12.577 1.66675 5.50033C1.66675 3.38616 3.38591 1.66699 5.50008 1.66699C5.71675 1.66699 5.93091 1.68533 6.13841 1.72116C6.34091 1.75366 6.54425 1.80533 6.74258 1.87366C7.01341 1.96783 7.21758 2.19533 7.28175 2.47533L8.42258 7.44533C8.48591 7.71866 8.40675 8.00533 8.21175 8.20866C8.09841 8.32699 8.09591 8.32949 7.06258 8.87033C7.89925 10.682 9.35341 12.1312 11.1284 12.9395C11.6701 11.9053 11.6734 11.902 11.7917 11.7887C11.9951 11.5937 12.2834 11.5178 12.5551 11.5778L17.5259 12.7187C17.8051 12.7828 18.0326 12.9862 18.1259 13.257C18.1942 13.4537 18.2459 13.657 18.2801 13.8662C18.3151 14.072 18.3334 14.2853 18.3334 14.5003C18.3334 16.6145 16.6134 18.3337 14.5001 18.3337Z" fill="white"/>
</mask>
<g mask="url(#mask0_2101_96356)">
<rect width="20" height="20" fill="white"/>
</g>
</svg>
