<svg width="20" height="20" viewBox="0 0 20 20" fill="none" xmlns="http://www.w3.org/2000/svg">
<path d="M15.2533 4.67969C13.8504 3.27344 11.9821 2.5 9.99665 2.5C5.89844 2.5 2.56362 5.83482 2.56362 9.93304C2.56362 11.2422 2.90513 12.5212 3.55469 13.6496L2.5 17.5L6.44085 16.4654C7.52567 17.058 8.74777 17.3694 9.9933 17.3694H9.99665C14.0915 17.3694 17.5 14.0346 17.5 9.93638C17.5 7.95089 16.6562 6.08594 15.2533 4.67969ZM9.99665 16.1172C8.88504 16.1172 7.79687 15.8192 6.84933 15.2567L6.625 15.1228L4.28795 15.7355L4.91071 13.4554L4.76339 13.221C4.14397 12.2366 3.8192 11.1016 3.8192 9.93304C3.8192 6.5279 6.59152 3.75558 10 3.75558C11.6507 3.75558 13.2009 4.39844 14.3661 5.56696C15.5312 6.73549 16.2478 8.28571 16.2444 9.93638C16.2444 13.3449 13.4018 16.1172 9.99665 16.1172ZM13.385 11.49C13.2009 11.3962 12.2868 10.9475 12.1161 10.8873C11.9453 10.8237 11.8214 10.7935 11.6975 10.981C11.5737 11.1685 11.2188 11.5837 11.1083 11.7109C11.0011 11.8348 10.8906 11.8516 10.7065 11.7578C9.61496 11.2121 8.89844 10.7835 8.17857 9.54799C7.98772 9.21987 8.36942 9.2433 8.72433 8.53348C8.7846 8.4096 8.75446 8.30245 8.70759 8.2087C8.66071 8.11495 8.28906 7.20089 8.13504 6.82924C7.98438 6.46763 7.83036 6.51786 7.71652 6.51116C7.60938 6.50446 7.48549 6.50446 7.36161 6.50446C7.23772 6.50446 7.03683 6.55134 6.86607 6.73549C6.69531 6.92299 6.21652 7.37165 6.21652 8.28571C6.21652 9.19978 6.88281 10.0837 6.97321 10.2076C7.06696 10.3315 8.28237 12.2065 10.1473 13.0134C11.3259 13.5223 11.7879 13.5658 12.3772 13.4788C12.7355 13.4252 13.4754 13.0301 13.6295 12.5949C13.7835 12.1596 13.7835 11.7879 13.7366 11.7109C13.6931 11.6272 13.5692 11.5804 13.385 11.49Z" fill="white"/>
</svg>
