<svg width="20" height="20" viewBox="0 0 20 20" fill="none" xmlns="http://www.w3.org/2000/svg">
<path fill-rule="evenodd" clip-rule="evenodd" d="M9.99992 9.16658C9.31075 9.16658 8.74992 8.60574 8.74992 7.91658C8.74992 7.22741 9.31075 6.66658 9.99992 6.66658C10.6891 6.66658 11.2499 7.22741 11.2499 7.91658C11.2499 8.60574 10.6891 9.16658 9.99992 9.16658ZM9.99992 4.99991C8.39159 4.99991 7.08325 6.30824 7.08325 7.91658C7.08325 9.52491 8.39159 10.8332 9.99992 10.8332C11.6083 10.8332 12.9166 9.52491 12.9166 7.91658C12.9166 6.30824 11.6083 4.99991 9.99992 4.99991ZM9.99992 16.372C8.60409 15.052 4.99992 11.3462 4.99992 8.26866C4.99992 5.54783 7.24242 3.33366 9.99992 3.33366C12.7574 3.33366 14.9999 5.54783 14.9999 8.26866C14.9999 11.3462 11.3958 15.052 9.99992 16.372ZM9.99992 1.66699C6.32409 1.66699 3.33325 4.62783 3.33325 8.26866C3.33325 12.8312 9.20742 17.9178 9.45742 18.132C9.61409 18.2662 9.80659 18.3337 9.99992 18.3337C10.1933 18.3337 10.3858 18.2662 10.5424 18.132C10.7924 17.9178 16.6666 12.8312 16.6666 8.26866C16.6666 4.62783 13.6758 1.66699 9.99992 1.66699Z" fill="white"/>
<mask id="mask0_2101_96375" style="mask-type:luminance" maskUnits="userSpaceOnUse" x="3" y="1" width="14" height="18">
<path fill-rule="evenodd" clip-rule="evenodd" d="M9.99992 9.16658C9.31075 9.16658 8.74992 8.60574 8.74992 7.91658C8.74992 7.22741 9.31075 6.66658 9.99992 6.66658C10.6891 6.66658 11.2499 7.22741 11.2499 7.91658C11.2499 8.60574 10.6891 9.16658 9.99992 9.16658ZM9.99992 4.99991C8.39159 4.99991 7.08325 6.30824 7.08325 7.91658C7.08325 9.52491 8.39159 10.8332 9.99992 10.8332C11.6083 10.8332 12.9166 9.52491 12.9166 7.91658C12.9166 6.30824 11.6083 4.99991 9.99992 4.99991ZM9.99992 16.372C8.60409 15.052 4.99992 11.3462 4.99992 8.26866C4.99992 5.54783 7.24242 3.33366 9.99992 3.33366C12.7574 3.33366 14.9999 5.54783 14.9999 8.26866C14.9999 11.3462 11.3958 15.052 9.99992 16.372ZM9.99992 1.66699C6.32409 1.66699 3.33325 4.62783 3.33325 8.26866C3.33325 12.8312 9.20742 17.9178 9.45742 18.132C9.61409 18.2662 9.80659 18.3337 9.99992 18.3337C10.1933 18.3337 10.3858 18.2662 10.5424 18.132C10.7924 17.9178 16.6666 12.8312 16.6666 8.26866C16.6666 4.62783 13.6758 1.66699 9.99992 1.66699Z" fill="white"/>
</mask>
<g mask="url(#mask0_2101_96375)">
<rect width="20" height="20" fill="white"/>
</g>
</svg>
