<svg width="65" height="64" viewBox="0 0 65 64" fill="none" xmlns="http://www.w3.org/2000/svg">
<g clip-path="url(#clip0_1425_96240)">
<path d="M59.2264 6.26667C59.2162 6.10774 59.1721 5.95284 59.0972 5.81229C59.0223 5.67175 58.9183 5.54879 58.7921 5.45163C58.6659 5.35447 58.5205 5.28533 58.3654 5.24884C58.2104 5.21235 58.0494 5.20933 57.8931 5.24L56.8131 5.42667C54.6404 5.78181 52.4413 5.95131 50.2398 5.93333C48.3926 5.92081 46.55 5.74681 44.7331 5.41333C43.2165 5.13771 41.7266 4.73176 40.2798 4.2C39.1038 3.7785 37.9626 3.26583 36.8664 2.66667C36.0294 2.21376 35.2232 1.70598 34.4531 1.14667C34.1731 0.946667 33.8931 0.733333 33.6264 0.506667C33.3919 0.251732 33.0847 0.0748902 32.7464 0C32.4152 0.0149965 32.1015 0.152851 31.8664 0.386667C31.4264 0.746667 30.9864 1.09333 30.5331 1.41333C29.7069 1.98288 28.8427 2.49518 27.9464 2.94667C26.7963 3.53738 25.6015 4.03669 24.3731 4.44C22.8734 4.93994 21.3348 5.31456 19.7731 5.56C17.9072 5.84487 16.0203 5.96977 14.1331 5.93333C11.8955 5.88722 9.66564 5.65531 7.46645 5.24C7.31017 5.20933 7.14915 5.21235 6.99413 5.24884C6.83911 5.28533 6.69366 5.35447 6.56747 5.45163C6.44129 5.54879 6.33727 5.67175 6.26237 5.81229C6.18747 5.95284 6.14341 6.10774 6.13312 6.26667C5.78645 12.08 4.79978 36.4267 13.4131 47.1467C22.4264 58.4133 30.2131 62.8933 32.1998 63.88C32.351 63.9552 32.5176 63.9943 32.6864 63.9943C32.8553 63.9943 33.0219 63.9552 33.1731 63.88C35.1731 62.9067 43.0131 58.4667 51.9598 47.1333C60.4398 36.3867 59.5598 12.08 59.2264 6.26667ZM45.9998 33.12C45.9998 33.361 45.9521 33.5996 45.8595 33.8221C45.7668 34.0446 45.6311 34.2466 45.4601 34.4164C45.289 34.5862 45.0861 34.7205 44.8629 34.8115C44.6397 34.9025 44.4008 34.9484 44.1598 34.9467H36.1598V42.9467C36.1598 43.4347 35.9659 43.9027 35.6209 44.2477C35.2758 44.5928 34.8078 44.7867 34.3198 44.7867H31.0264C30.5385 44.7867 30.0704 44.5928 29.7254 44.2477C29.3803 43.9027 29.1864 43.4347 29.1864 42.9467V34.9467H21.1864C20.9443 34.9502 20.7039 34.9056 20.4792 34.8153C20.2545 34.7251 20.05 34.5911 19.8775 34.4212C19.7051 34.2512 19.5681 34.0486 19.4747 33.8252C19.3812 33.6019 19.3331 33.3621 19.3331 33.12V29.8267C19.3348 29.5816 19.3854 29.3393 19.482 29.1141C19.5786 28.8889 19.7192 28.6852 19.8955 28.515C20.0719 28.3449 20.2805 28.2117 20.509 28.1232C20.7376 28.0348 20.9815 27.9929 21.2264 28H29.2264V20C29.2264 19.512 29.4203 19.044 29.7654 18.6989C30.1104 18.3539 30.5784 18.16 31.0664 18.16H34.3464C34.8275 18.1705 35.2853 18.3689 35.6217 18.7129C35.9582 19.0568 36.1466 19.5189 36.1465 20V28H44.1465C44.3881 27.9982 44.6277 28.0441 44.8516 28.1349C45.0755 28.2258 45.2793 28.3599 45.4514 28.5295C45.6235 28.6991 45.7605 28.901 45.8546 29.1235C45.9487 29.3461 45.998 29.585 45.9998 29.8267V33.12Z" fill="#3D3D3D"/>
</g>
<defs>
<clipPath id="clip0_1425_96240">
<rect width="64" height="64" fill="white" transform="translate(0.666748)"/>
</clipPath>
</defs>
</svg>
