<svg width="64" height="64" viewBox="0 0 64 64" fill="none" xmlns="http://www.w3.org/2000/svg">
<g clip-path="url(#clip0_1425_96247)">
<path d="M58.56 6.26667C58.5497 6.10774 58.5057 5.95284 58.4308 5.81229C58.3559 5.67175 58.2519 5.54879 58.1257 5.45163C57.9995 5.35447 57.854 5.28533 57.699 5.24884C57.544 5.21235 57.383 5.20933 57.2267 5.24L56.1467 5.42667C53.9739 5.78181 51.7749 5.95131 49.5734 5.93333C47.7262 5.92081 45.8836 5.74681 44.0667 5.41333C42.5501 5.13771 41.0602 4.73176 39.6134 4.2C38.4374 3.7785 37.2962 3.26583 36.2 2.66667C35.363 2.21376 34.5568 1.70598 33.7867 1.14667C33.5067 0.946667 33.2267 0.733333 32.96 0.506667C32.7285 0.25471 32.4265 0.0781823 32.0934 0C31.7589 0.0178841 31.442 0.155071 31.2 0.386667C30.7734 0.746667 30.32 1.09333 29.8667 1.41333C29.0432 1.97992 28.1836 2.49212 27.2934 2.94667C26.1376 3.53509 24.9386 4.03433 23.7067 4.44C22.207 4.93994 20.6684 5.31456 19.1067 5.56C17.2452 5.84398 15.3628 5.96888 13.48 5.93333C11.2425 5.88716 9.01257 5.65525 6.81337 5.24C6.65813 5.2094 6.49817 5.21204 6.34403 5.24775C6.18988 5.28345 6.04505 5.35141 5.91908 5.44715C5.7931 5.54289 5.68884 5.66424 5.61317 5.8032C5.53749 5.94215 5.49212 6.09557 5.48004 6.25333C5.13337 12.08 4.14671 36.4267 12.76 47.1467C21.7734 58.4133 29.56 62.8933 31.5467 63.88C31.6979 63.9552 31.8645 63.9943 32.0334 63.9943C32.2022 63.9943 32.3688 63.9552 32.52 63.88C34.52 62.9067 42.36 58.4667 51.3067 47.1333C59.7734 36.3867 58.9067 12.08 58.56 6.26667ZM46.1867 25.7067L30.32 43.3067C30.0203 43.6431 29.6525 43.9121 29.2411 44.096C28.8297 44.2799 28.384 44.3744 27.9334 44.3733C27.243 44.3743 26.5703 44.1548 26.0134 43.7467L20 39.24C19.314 38.7326 18.8577 37.9734 18.7314 37.1295C18.6051 36.2855 18.8193 35.426 19.3267 34.74C19.8342 34.054 20.5933 33.5976 21.4373 33.4714C22.2812 33.3451 23.1407 33.5592 23.8267 34.0667L27.5734 36.84L41.4134 21.4C41.6962 21.0866 42.0379 20.8319 42.4191 20.6506C42.8003 20.4692 43.2135 20.3647 43.6351 20.3431C44.0566 20.3214 44.4783 20.383 44.8761 20.5243C45.2739 20.6656 45.64 20.8839 45.9534 21.1667C46.2668 21.4494 46.5215 21.7912 46.7028 22.1724C46.8841 22.5536 46.9886 22.9668 47.0103 23.3883C47.032 23.8099 46.9704 24.2316 46.8291 24.6294C46.6878 25.0272 46.4695 25.3932 46.1867 25.7067Z" fill="#3D3D3D"/>
</g>
<defs>
<clipPath id="clip0_1425_96247">
<rect width="64" height="64" fill="white"/>
</clipPath>
</defs>
</svg>
