<svg width="65" height="64" viewBox="0 0 65 64" fill="none" xmlns="http://www.w3.org/2000/svg">
<g clip-path="url(#clip0_1425_96246)">
<g clip-path="url(#clip1_1425_96246)">
<path d="M30.8269 50.7065L34.7336 59.7065H54.2669L43.8802 41.7065H34.7336L30.8269 50.7065Z" fill="#3D3D3D"/>
<path d="M25.7867 50.7065L29.6934 41.7065H21.4534H0.666748L11.0667 59.7065H29.6934L25.7867 50.7065Z" fill="#7F7F7F"/>
<path d="M20.1867 25.9061L10.4401 24.7861L0.666748 41.7061H21.4534L26.0267 33.7861L20.1867 25.9061Z" fill="#3D3D3D"/>
<path d="M22.7071 21.5465L28.5471 29.4265L32.6671 22.2931L43.0671 4.27979H22.2671L12.9604 20.4265L22.7071 21.5465Z" fill="#7F7F7F"/>
<path d="M46.9867 29.0931L52.8267 21.2131L43.0667 4.27979L32.6667 22.2931L37.2401 30.2131L46.9867 29.0931Z" fill="#3D3D3D"/>
<path d="M49.5064 33.4532L39.7598 34.5732L43.8798 41.7066L54.2664 59.7066L64.6664 41.7066L55.3464 25.5732L49.5064 33.4532Z" fill="#7F7F7F"/>
</g>
</g>
<defs>
<clipPath id="clip0_1425_96246">
<rect width="64" height="64" fill="white" transform="translate(0.666748)"/>
</clipPath>
<clipPath id="clip1_1425_96246">
<rect width="64" height="64" fill="white" transform="translate(0.666748)"/>
</clipPath>
</defs>
</svg>
