<svg width="65" height="64" viewBox="0 0 65 64" fill="none" xmlns="http://www.w3.org/2000/svg">
<g clip-path="url(#clip0_1425_96243)">
<path d="M53.9996 42.9466C54.0689 45.6439 53.5975 48.3277 52.6131 50.8399C51.6288 53.3521 50.1515 55.6418 48.2683 57.574C46.3851 59.5062 44.1341 61.0419 41.648 62.0904C39.1619 63.1389 36.4911 63.6791 33.7929 63.6791C31.0948 63.6791 28.4239 63.1389 25.9379 62.0904C23.4518 61.0419 21.2008 59.5062 19.3176 57.574C17.4344 55.6418 15.957 53.3521 14.9727 50.8399C13.9884 48.3277 13.517 45.6439 13.5863 42.9466C13.5863 28.0666 33.7996 4.47998 33.7996 4.47998C33.7996 4.47998 53.9996 28.0666 53.9996 42.9466Z" fill="#3D3D3D"/>
<path d="M32.6667 0C32.6667 0 10.6267 25.72 10.6267 41.96C10.6267 47.8054 12.9488 53.4113 17.0821 57.5446C21.2154 61.6779 26.8213 64 32.6667 64C38.5121 64 44.118 61.6779 48.2513 57.5446C52.3846 53.4113 54.7067 47.8054 54.7067 41.96C54.7067 25.72 32.6667 0 32.6667 0ZM32.6667 60C27.895 59.9929 23.3207 58.0943 19.9466 54.7201C16.5725 51.346 14.6738 46.7717 14.6667 42C14.6667 41.5863 14.8311 41.1895 15.1236 40.8969C15.4162 40.6044 15.813 40.44 16.2267 40.44C16.6404 40.44 17.0372 40.6044 17.3298 40.8969C17.6224 41.1895 17.7867 41.5863 17.7867 42C17.8008 45.9384 19.3743 49.7109 22.163 52.492C24.9516 55.2732 28.7283 56.8365 32.6667 56.84C33.0858 56.84 33.4876 57.0065 33.7839 57.3028C34.0802 57.5991 34.2467 58.001 34.2467 58.42C34.2467 58.839 34.0802 59.2409 33.7839 59.5372C33.4876 59.8335 33.0858 60 32.6667 60Z" fill="#3D3D3D"/>
</g>
<defs>
<clipPath id="clip0_1425_96243">
<rect width="64" height="64" fill="white" transform="translate(0.666504)"/>
</clipPath>
</defs>
</svg>
