<svg width="64" height="64" viewBox="0 0 64 64" fill="none" xmlns="http://www.w3.org/2000/svg">
<g clip-path="url(#clip0_1425_96244)">
<g clip-path="url(#clip1_1425_96244)">
<path d="M54.1332 27.04C51.1066 26.6534 40.7999 25.9467 34.0399 32.68C27.2799 39.4134 27.9999 49.7334 28.3999 52.7734C31.4266 53.1467 41.7332 53.8667 48.4932 47.1334C55.2532 40.4 54.5199 30.0667 54.1332 27.04Z" fill="#3D3D3D"/>
<path d="M32.4402 55.5335C30.1372 55.5418 27.8356 55.4171 25.5469 55.1602V64.0002H38.4535V55.2535C36.2802 55.4535 34.2402 55.5335 32.4402 55.5335Z" fill="#3D3D3D"/>
<path d="M30.3603 33.1201L29.947 32.6801C23.2136 25.9468 12.8936 26.6668 9.85362 27.0401C9.48029 30.0668 8.76029 40.3735 15.4936 47.1335C18.3423 49.8711 21.9379 51.7038 25.827 52.4001C25.4403 48.7735 25.187 40.0001 30.3603 33.1201Z" fill="#3D3D3D"/>
<path d="M32.0003 31.1864L32.2669 30.9064C33.2204 29.9567 34.2655 29.1036 35.3869 28.3597C34.658 25.7334 33.2828 23.3314 31.3869 21.3731C25.7469 15.7197 17.0936 16.2131 14.3603 16.5464C14.0642 19.1217 14.1405 21.7262 14.5869 24.2797C19.5203 24.3997 26.5069 25.6131 31.7736 30.9464L32.0003 31.1864Z" fill="#3D3D3D"/>
<path d="M48.5333 16.5464C46.0799 16.253 38.8666 15.8264 33.3333 19.8264C35.289 21.8771 36.7566 24.3428 37.6266 27.0397C40.962 25.4297 44.5926 24.5221 48.2933 24.3731C48.7601 21.7904 48.841 19.1528 48.5333 16.5464Z" fill="#3D3D3D"/>
<path d="M32.0003 0C29.827 1.46667 22.787 6.74667 22.0137 14.1867C25.4281 14.7003 28.6622 16.0517 31.427 18.12C34.5062 15.8242 38.1519 14.4093 41.9737 14.0267C41.1203 6.66667 34.1603 1.45333 32.0003 0Z" fill="#3D3D3D"/>
</g>
</g>
<defs>
<clipPath id="clip0_1425_96244">
<rect width="64" height="64" fill="white"/>
</clipPath>
<clipPath id="clip1_1425_96244">
<rect width="64" height="64" fill="white"/>
</clipPath>
</defs>
</svg>
