<svg width="65" height="64" viewBox="0 0 65 64" fill="none" xmlns="http://www.w3.org/2000/svg">
<g clip-path="url(#clip0_1425_96239)">
<g clip-path="url(#clip1_1425_96239)">
<path d="M64.3333 34.4048H0.333252C0.333252 45.938 7.69325 55.9143 18.3733 60.6285H17.6666V66.3951H46.9999V60.6285H46.3066C56.9733 55.871 64.3333 45.938 64.3333 34.4048Z" fill="#3D3D3D"/>
<path d="M10.7203 2.41492C10.7203 2.41492 10.3069 15.6637 15.6669 21.4303C17.3309 23.1988 19.4546 24.3755 21.754 24.8032C24.0534 25.2309 26.4188 24.8891 28.5336 23.8235L19.2003 13.7319C18.9421 13.4413 18.8013 13.0518 18.8088 12.6489C18.8163 12.2461 18.9715 11.863 19.2403 11.5838C19.509 11.3047 19.8693 11.1525 20.2419 11.1606C20.6145 11.1687 20.9688 11.3365 21.2269 11.6271L30.5603 21.7187C31.5925 19.4346 31.933 16.857 31.5332 14.3519C31.1335 11.8468 30.014 9.54148 28.3336 7.76346C22.7869 1.7806 10.7203 2.41492 10.7203 2.41492Z" fill="#3D3D3D"/>
<path d="M53.9465 2.41492C53.9465 2.41492 54.3599 15.6637 48.9999 21.4303C47.3359 23.1988 45.2122 24.3755 42.9128 24.8032C40.6134 25.2309 38.248 24.8891 36.1332 23.8235L45.4665 13.7319C45.5944 13.588 45.6947 13.4183 45.7619 13.2325C45.829 13.0467 45.8617 12.8484 45.858 12.6489C45.8543 12.4494 45.8143 12.2527 45.7402 12.07C45.6662 11.8872 45.5596 11.722 45.4265 11.5838C45.2935 11.4456 45.1365 11.3371 44.9647 11.2645C44.7928 11.1919 44.6094 11.1566 44.4249 11.1606C44.2404 11.1646 44.0585 11.2079 43.8895 11.2879C43.7205 11.368 43.5677 11.4832 43.4399 11.6271L34.1065 21.7187C33.0743 19.4346 32.7338 16.857 33.1336 14.3519C33.5333 11.8468 34.6528 9.54148 36.3332 7.76346C41.8799 1.7806 53.9465 2.41492 53.9465 2.41492Z" fill="#3D3D3D"/>
<path d="M32.3331 35.9482C31.951 35.9484 31.5839 35.7873 31.3099 35.4992C31.036 35.211 30.8769 34.8187 30.8665 34.4057V24.0258C30.8665 23.6052 31.021 23.2018 31.296 22.9044C31.5711 22.607 31.9441 22.4399 32.3331 22.4399C32.7221 22.4399 33.0952 22.607 33.3702 22.9044C33.6453 23.2018 33.7998 23.6052 33.7998 24.0258V34.4057C33.7894 34.8187 33.6303 35.211 33.3563 35.4992C33.0824 35.7873 32.7153 35.9484 32.3331 35.9482Z" fill="#3D3D3D"/>
</g>
</g>
<defs>
<clipPath id="clip0_1425_96239">
<rect width="64" height="64" fill="white" transform="translate(0.333252)"/>
</clipPath>
<clipPath id="clip1_1425_96239">
<rect width="64" height="64" fill="white" transform="translate(0.333252)"/>
</clipPath>
</defs>
</svg>
