<svg width="65" height="64" viewBox="0 0 65 64" fill="none" xmlns="http://www.w3.org/2000/svg">
<g clip-path="url(#clip0_1425_96245)">
<g clip-path="url(#clip1_1425_96245)">
<path d="M52.3335 42.96C52.3191 38.6554 50.9163 34.4704 48.3335 31.0267C49.358 29.2781 49.9132 27.2945 49.9453 25.2682C49.9774 23.2418 49.4853 21.2416 48.5168 19.4615C47.5482 17.6813 46.1361 16.1817 44.4173 15.108C42.6985 14.0343 40.7314 13.423 38.7068 13.3334V9.33337H41.2002V7.12003H36.9735V2.80003C36.9735 2.43121 36.9007 2.06601 36.7591 1.72543C36.6176 1.38485 36.4101 1.07558 36.1487 0.815404C35.8873 0.555225 35.577 0.349257 35.2358 0.20933C34.8945 0.0694034 34.529 -0.00172456 34.1602 3.1749e-05H30.5068C30.138 -0.00172456 29.7725 0.0694034 29.4312 0.20933C29.09 0.349257 28.7797 0.555225 28.5183 0.815404C28.2569 1.07558 28.0495 1.38485 27.9079 1.72543C27.7664 2.06601 27.6935 2.43121 27.6935 2.80003V7.12003H23.4668V9.33337H25.9602V24C22.0399 25.3562 18.6384 27.8978 16.2266 31.2728C13.8148 34.6478 12.5121 38.6893 12.4989 42.8374C12.4857 46.9856 13.7627 51.0353 16.153 54.4255C18.5433 57.8158 21.9286 60.379 25.8402 61.76H20.5068V64H44.1068V61.8134H38.7735C42.7148 60.4729 46.1395 57.936 48.5702 54.5564C51.001 51.1768 52.3165 47.123 52.3335 42.96ZM38.7602 20.2934C39.9224 20.4356 40.9933 20.9956 41.7734 21.8688C42.5534 22.7421 42.9894 23.8692 43.0002 25.04C42.9984 25.3805 42.9627 25.72 42.8935 26.0534C41.5863 25.2018 40.1804 24.5123 38.7068 24L38.7602 20.2934ZM32.3335 57.8C28.3988 57.7965 24.6262 56.2319 21.8439 53.4496C19.0617 50.6673 17.497 46.8948 17.4935 42.96C17.4956 41.5043 17.7159 40.0571 18.1468 38.6667H46.5202C46.9551 40.07 47.1754 41.5309 47.1735 43C47.1594 46.9278 45.5901 50.6901 42.809 53.4638C40.0278 56.2374 36.2613 57.7965 32.3335 57.8Z" fill="#3D3D3D"/>
</g>
</g>
<defs>
<clipPath id="clip0_1425_96245">
<rect width="64" height="64" fill="white" transform="translate(0.333496)"/>
</clipPath>
<clipPath id="clip1_1425_96245">
<rect width="64" height="64" fill="white" transform="translate(0.333496)"/>
</clipPath>
</defs>
</svg>
