<svg width="65" height="64" viewBox="0 0 65 64" fill="none" xmlns="http://www.w3.org/2000/svg">
<g clip-path="url(#clip0_1425_96242)">
<g clip-path="url(#clip1_1425_96242)">
<path d="M49.0001 27.9064H15.6668C14.874 27.8737 14.1004 28.155 13.5138 28.6892C12.9272 29.2234 12.5749 29.9674 12.5334 30.7597V61.133C12.5749 61.9265 12.9267 62.6718 13.5129 63.2082C14.0992 63.7445 14.8728 64.0288 15.6668 63.9997H49.0001C49.7941 64.0288 50.5677 63.7445 51.1539 63.2082C51.7402 62.6718 52.092 61.9265 52.1334 61.133V30.7597C52.092 29.9674 51.7397 29.2234 51.1531 28.6892C50.5665 28.155 49.7929 27.8737 49.0001 27.9064ZM34.5868 45.8664V52.533C34.5868 53.1307 34.3494 53.7038 33.9268 54.1264C33.5042 54.549 32.9311 54.7864 32.3334 54.7864C31.7358 54.7864 31.1627 54.549 30.7401 54.1264C30.3175 53.7038 30.0801 53.1307 30.0801 52.533V45.8664C29.0375 45.357 28.1982 44.5093 27.6991 43.4617C27.2 42.4141 27.0707 41.2283 27.3321 40.0976C27.5935 38.967 28.2302 37.9584 29.1385 37.2361C30.0468 36.5139 31.173 36.1207 32.3334 36.1207C33.4939 36.1207 34.6201 36.5139 35.5284 37.2361C36.4366 37.9584 37.0734 38.967 37.3348 40.0976C37.5962 41.2283 37.4669 42.4141 36.9678 43.4617C36.4687 44.5093 35.6294 45.357 34.5868 45.8664Z" fill="#3D3D3D"/>
<path d="M22.3335 25.3334V16.0001C22.3335 13.3975 23.3674 10.9014 25.2078 9.06104C27.0481 7.22068 29.5442 6.18678 32.1468 6.18678C34.7495 6.18678 37.2456 7.22068 39.0859 9.06104C40.9263 10.9014 41.9602 13.3975 41.9602 16.0001V25.3334H48.2002V16.0001C48.2002 11.7425 46.5088 7.65927 43.4983 4.64869C40.4877 1.63811 36.4044 -0.0532227 32.1468 -0.0532227C27.8892 -0.0532227 23.806 1.63811 20.7954 4.64869C17.7848 7.65927 16.0935 11.7425 16.0935 16.0001V25.3334H22.3335Z" fill="#3D3D3D"/>
</g>
</g>
<defs>
<clipPath id="clip0_1425_96242">
<rect width="64" height="64" fill="white" transform="translate(0.333252)"/>
</clipPath>
<clipPath id="clip1_1425_96242">
<rect width="64" height="64" fill="white" transform="translate(0.333252)"/>
</clipPath>
</defs>
</svg>
