<svg width="82" height="64" viewBox="0 0 82 64" fill="none" xmlns="http://www.w3.org/2000/svg">
<path d="M66.9655 61.6896V61.1832H67.4769C69.0364 61.0723 70.585 60.8182 72.107 60.4235C73.2751 60.1077 74.3757 59.5375 75.3453 58.746C76.0311 58.155 76.5978 57.41 77.0089 56.5595C77.4199 55.7089 77.6661 54.7717 77.7314 53.8084C77.7743 53.4937 77.7743 53.1736 77.7314 52.8588C77.6418 52.1515 77.3244 51.5045 76.8384 51.0386C76.3523 50.5727 75.7308 50.3197 75.0897 50.3267C73.9281 50.2577 72.7666 50.4626 71.6809 50.9281L70.4027 51.4662C70.322 51.3539 70.278 51.2144 70.278 51.0705C70.278 50.9267 70.322 50.7872 70.4027 50.6749V50.4533C70.914 48.6492 71.4821 46.8451 71.9934 45.0093C72.5631 42.8208 72.8124 40.5444 72.732 38.2675C72.6312 35.5408 71.6178 32.955 69.8914 31.0193C68.0327 28.8327 65.6449 27.2934 63.0171 26.5881C60.6913 25.866 58.2993 25.4413 55.8872 25.3221C53.6147 25.3221 51.3423 25.3221 49.0698 25.3221H44.9793L39.8094 25.7335L34.5259 26.145C33.7589 26.145 32.9636 26.4299 32.1682 26.5881L26.487 27.8225L23.2487 28.4872H23.0783V28.0124L23.2771 27.8542C26.4027 26.3072 29.3734 24.3976 32.1398 22.1569C33.7592 20.8494 35.3054 19.433 36.77 17.9156C37.3381 17.3143 37.963 16.7762 38.5596 16.1748C38.7895 15.9333 38.9987 15.6683 39.1845 15.3835C39.2884 15.2207 39.3654 15.0385 39.4117 14.8454C39.4478 14.7591 39.4659 14.6648 39.4646 14.5696C39.4634 14.4743 39.4429 14.3806 39.4047 14.2955C39.3665 14.2103 39.3115 14.1358 39.2439 14.0776C39.1762 14.0194 39.0977 13.9789 39.0141 13.9592C38.6745 13.9125 38.331 13.9125 37.9914 13.9592C36.8417 14.0424 35.7059 14.287 34.6111 14.6872C32.6256 15.3907 30.7193 16.3466 28.9299 17.5358C26.5583 19.0286 24.2805 20.6994 22.1125 22.5367C21.2064 23.2721 20.4591 24.2237 19.9252 25.3221L19.4707 25.1005L19.9252 23.8661C21.2603 20.3528 22.5386 16.8078 23.5612 13.1363C23.9247 12.0124 24.1632 10.8431 24.2713 9.65461C24.3423 8.75956 24.3423 7.85928 24.2713 6.96423C24.2713 6.10965 23.8453 5.95139 23.2487 6.48946C22.6077 7.02404 22.0752 7.70357 21.6864 8.4835C20.2093 11.4271 18.8458 14.434 17.5391 17.5042C16.3488 20.2676 15.3147 23.1112 14.4429 26.0184C14.1872 26.9996 13.96 28.0124 13.7043 29.1836H13.2498C13.2498 28.9936 13.2498 28.8354 13.2498 28.6455C13.1361 27.8062 13.1361 26.9526 13.2498 26.1134C13.4487 24.5941 13.6191 22.9482 13.7611 21.4923C14.174 16.4864 15.6649 11.6656 18.1072 7.43901C19.0446 5.85643 20.0104 4.27386 20.9478 2.72294C21.4463 1.97531 22.0761 1.34847 22.7988 0.880525C23.5216 0.41258 24.3222 0.113311 25.1519 0.000915435H25.7485C26.1196 -0.0107273 26.4867 0.0888682 26.8115 0.289302C27.1363 0.489735 27.4068 0.783655 27.5948 1.14037C27.9397 1.83017 28.1796 2.57882 28.305 3.35597C28.5511 4.91273 28.599 6.50039 28.447 8.07203C28.2942 10.4327 27.694 12.7305 26.6859 14.8138H26.8847C29.1421 12.9101 31.6934 11.4834 34.4123 10.6042C36.1589 9.92285 37.9697 9.46622 39.8094 9.24314C40.6474 9.10308 41.4995 9.10308 42.3376 9.24314C42.6674 9.26909 42.9876 9.37802 43.2742 9.56173C43.5608 9.74544 43.8063 9.99916 43.9922 10.3038C44.1781 10.6084 44.2996 10.9561 44.3476 11.3206C44.3956 11.6851 44.3687 12.057 44.2692 12.4083C44.0636 13.7287 43.619 14.9887 42.9625 16.1115C42.1464 17.4825 41.1934 18.7461 40.1219 19.878C39.1486 20.9013 38.0931 21.8231 36.9688 22.6317L36.77 22.8533H37.1393C39.4197 22.3403 41.7242 21.9704 44.0419 21.7455C45.7179 21.5556 47.3938 21.4289 49.0698 21.334C50.7457 21.239 52.5637 21.1757 54.2965 21.1441C56.0292 21.1124 58.529 21.1441 60.631 21.4606C63.0443 21.6439 65.4191 22.2308 67.6757 23.2014C70.6829 24.4939 73.1595 26.9718 74.6352 30.1647C75.3293 31.7163 75.7899 33.3844 75.9987 35.1024C76.1972 36.7808 76.2542 38.4763 76.1691 40.1666C76.095 42.4454 75.53 44.6709 74.5215 46.6552C74.4562 46.7547 74.3992 46.8606 74.3511 46.9717H74.692C75.8244 46.5975 77.0142 46.4897 78.1859 46.6552C78.7737 46.729 79.3375 46.9568 79.8312 47.3198C80.3249 47.6829 80.7345 48.171 81.0265 48.7441C81.5426 49.7079 81.8536 50.7907 81.9355 51.9093C82.095 53.3292 81.9575 54.7709 81.5337 56.1217C81.1099 57.4725 80.4113 58.6957 79.4926 59.6956C78.4406 60.9924 77.1118 61.9722 75.6294 62.5442C74.4562 62.9644 73.211 63.0728 71.9934 62.8607C70.9708 62.7024 69.9482 62.4492 68.954 62.2593L67.5053 62.0061H67.0508" fill="#231F20"/>
<path d="M37.936 63.3035C37.9572 63.1494 38.0312 63.0105 38.1425 62.916C38.2537 62.8215 38.3936 62.7789 38.5326 62.7971C39.2506 62.7351 39.9577 62.5647 40.6346 62.2907C41.8847 61.8603 43.0645 61.2083 44.1285 60.3599C44.5264 60.0638 44.8891 59.7129 45.208 59.3154C45.4645 58.9737 45.6051 58.5424 45.6051 58.0968C45.6051 57.6513 45.4645 57.22 45.208 56.8783L44.7251 56.2136C43.8882 55.2156 43.1101 54.1584 42.3958 53.0484C41.2746 51.2624 40.5626 49.1978 40.3221 47.0347C40.0472 44.4357 40.6552 41.8161 42.0265 39.6915C43.2916 37.6643 44.9648 35.995 46.9123 34.8172C49.6487 33.059 52.7585 32.1517 55.917 32.1901C58.1358 32.1854 60.3248 32.7599 62.3084 33.8677C63.0472 34.281 63.7269 34.8144 64.3252 35.4502C64.661 35.8658 64.9387 36.3352 65.149 36.8429C65.149 37.0961 65.149 37.2544 65.0069 37.4759L63.8423 36.9379C62.1406 36.2094 60.3668 35.71 58.5588 35.4502C57.735 35.4502 56.9396 35.2603 56.1159 35.2287C55.1527 35.252 54.1969 35.4224 53.2753 35.7351C50.948 36.4541 48.8506 37.8915 47.2248 39.8814C46.2473 41.0284 45.527 42.4166 45.1227 43.9328C44.6329 45.8521 44.7636 47.9022 45.492 49.725C45.9011 50.7039 46.437 51.6103 47.0828 52.4154C47.6793 53.2383 48.3042 54.0929 48.9007 54.9792C49.1817 55.4361 49.4196 55.924 49.6109 56.4351C49.8874 57.0984 49.9731 57.8408 49.8561 58.5604C49.7392 59.2801 49.4253 59.9418 48.9576 60.4549C48.1418 61.3586 47.1774 62.0787 46.117 62.5755C44.3888 63.4717 42.512 63.9568 40.6062 63.9998C39.9288 63.9999 39.2564 63.8715 38.6178 63.62L37.936 63.3035Z" fill="#231F20"/>
<path d="M12.086 30.6714C12.0965 30.84 12.0965 31.0092 12.086 31.1778C11.5068 31.629 10.9818 32.1609 10.5237 32.7604L8.56364 34.8177C7.52043 36.0357 6.57027 37.3485 5.72304 38.7425C4.848 40.1528 4.23917 41.7465 3.93346 43.4269C3.77737 44.2833 3.77737 45.1659 3.93346 46.0223C4.02025 46.4353 4.18064 46.8246 4.40511 47.1672C4.62958 47.5097 4.91354 47.7985 5.24014 48.0164C5.98605 48.5012 6.80376 48.8335 7.65465 48.9976C8.75092 49.2181 9.86451 49.3136 10.9781 49.2824C11.4546 49.2353 11.9287 49.1613 12.3984 49.0609C12.4556 49.1931 12.5221 49.3201 12.5973 49.4407L12.4269 49.599C10.7394 50.6676 8.94763 51.5172 7.08653 52.1311C6.1083 52.4393 5.08967 52.5571 4.07549 52.4792C3.22602 52.4552 2.40655 52.1243 1.74052 51.5363C1.07448 50.9483 0.597957 50.1351 0.382715 49.2191C0.044732 47.9256 -0.0709193 46.5725 0.0418429 45.2311C0.0418429 44.3132 0.240685 43.4269 0.382715 42.5407C0.606171 41.509 0.960047 40.5179 1.43374 39.5971C2.15458 37.9365 3.11409 36.4184 4.27434 35.1026C6.19254 32.8721 8.68302 31.3575 11.4042 30.7663H12.0008" fill="#231F20"/>
<path d="M15.5224 59.822C15.9201 59.3156 16.2894 58.9357 16.6019 58.4926C16.9838 58.0069 17.3172 57.4762 17.5961 56.9101C17.9903 56.2386 18.1555 55.4319 18.0617 54.6363C17.9679 53.8408 17.6213 53.109 17.0848 52.5738C16.113 51.4901 14.9258 50.6768 13.6192 50.1999L13.0227 49.9784H13.2215C14.3925 49.501 15.6503 49.3489 16.8859 49.5353C17.717 49.6011 18.5175 49.9111 19.2061 50.4337C19.8947 50.9563 20.4467 51.6729 20.8059 52.5105C21.1494 53.2433 21.3288 54.0577 21.3288 54.8844C21.3288 55.711 21.1494 56.5255 20.8059 57.2582C20.4756 58.1354 19.9352 58.8945 19.2439 59.4527C18.5526 60.0109 17.7369 60.3467 16.8859 60.4234C16.6047 60.4865 16.315 60.4865 16.0337 60.4234C16.0337 60.4234 15.7781 60.1702 15.7213 60.1069" fill="#231F20"/>
</svg>
