<svg width="64" height="64" viewBox="0 0 64 64" fill="none" xmlns="http://www.w3.org/2000/svg">
<g clip-path="url(#clip0_1425_96238)">
<path d="M20 39.0135H24.9467L22.48 34.7202L20 39.0135Z" fill="#3D3D3D"/>
<path d="M32.0001 45.7733L34.3334 41.7466H29.6667L32.0001 45.7733Z" fill="#3D3D3D"/>
<path d="M24.9467 24.9868H20L22.48 29.2801L24.9467 24.9868Z" fill="#3D3D3D"/>
<path d="M32.0001 18.2266L29.6667 22.2532H34.3334L32.0001 18.2266Z" fill="#3D3D3D"/>
<path d="M35.9061 24.9868H28.0927L24.0527 32.0002L28.0927 39.0135H35.9061L39.9461 32.0002L35.9061 24.9868Z" fill="#3D3D3D"/>
<path d="M58.5597 6.26667C58.5494 6.10774 58.5053 5.95284 58.4304 5.81229C58.3555 5.67175 58.2515 5.54879 58.1253 5.45163C57.9992 5.35447 57.8537 5.28533 57.6987 5.24884C57.5437 5.21235 57.3826 5.20933 57.2264 5.24L56.1464 5.42667C53.9736 5.78181 51.7746 5.95131 49.573 5.93333C47.7258 5.92081 45.8833 5.74681 44.0664 5.41333C42.5516 5.13595 41.0621 4.7346 39.613 4.21333C38.439 3.78181 37.2982 3.26487 36.1997 2.66667C35.3626 2.21376 34.5564 1.70598 33.7864 1.14667C33.5064 0.946667 33.2264 0.733333 32.9597 0.506667C32.7251 0.251732 32.418 0.0748902 32.0797 0C31.7485 0.0149965 31.4348 0.152851 31.1997 0.386667C30.7597 0.746667 30.3197 1.09333 29.8664 1.41333C29.0401 1.98288 28.1759 2.49518 27.2797 2.94667C26.1296 3.53738 24.9348 4.03669 23.7064 4.44C22.2067 4.93994 20.668 5.31456 19.1064 5.56C17.2404 5.84487 15.3536 5.96977 13.4664 5.93333C11.2288 5.88722 8.99889 5.65531 6.7997 5.24C6.64342 5.20933 6.4824 5.21235 6.32738 5.24884C6.17236 5.28533 6.02691 5.35447 5.90072 5.45163C5.77454 5.54879 5.67053 5.67175 5.59563 5.81229C5.52072 5.95284 5.47666 6.10774 5.46637 6.26667C5.1197 12.08 4.13304 36.4267 12.7464 47.1467C21.7597 58.4133 29.5464 62.8933 31.533 63.88C31.6843 63.9552 31.8508 63.9943 32.0197 63.9943C32.1886 63.9943 32.3551 63.9552 32.5064 63.88C34.5064 62.9067 42.3464 58.4667 51.293 47.1333C59.773 36.3867 58.893 12.08 58.5597 6.26667ZM48.7197 41.7467H37.4664L31.9997 51.2267L26.533 41.7467H15.2797L20.9064 32L15.2797 22.2533H26.533L31.9997 12.7733L37.4664 22.2533H48.7197L43.093 32L48.7197 41.7467Z" fill="#3D3D3D"/>
<path d="M39.0527 24.9868L41.5194 29.2801L43.9994 24.9868H39.0527Z" fill="#3D3D3D"/>
<path d="M39.0527 39.0135H43.9994L41.5194 34.7202L39.0527 39.0135Z" fill="#3D3D3D"/>
</g>
<defs>
<clipPath id="clip0_1425_96238">
<rect width="64" height="64" fill="white"/>
</clipPath>
</defs>
</svg>
