<svg width="24" height="25" viewBox="0 0 24 25" fill="none" xmlns="http://www.w3.org/2000/svg">
<path fill-rule="evenodd" clip-rule="evenodd" d="M13.8287 19.5C13.5367 19.5 13.2467 19.373 13.0487 19.127L8.22066 13.127C7.92266 12.756 7.92666 12.226 8.23166 11.86L13.2317 5.85998C13.5847 5.43598 14.2157 5.37898 14.6407 5.73198C15.0647 6.08498 15.1217 6.71598 14.7677 7.13998L10.2927 12.511L14.6077 17.873C14.9537 18.303 14.8857 18.933 14.4547 19.279C14.2707 19.428 14.0487 19.5 13.8287 19.5Z" fill="#231F20"/>
<mask id="mask0_2049_66412" style="mask-type:luminance" maskUnits="userSpaceOnUse" x="8" y="5" width="7" height="15">
<path fill-rule="evenodd" clip-rule="evenodd" d="M13.8287 19.5C13.5367 19.5 13.2467 19.373 13.0487 19.127L8.22066 13.127C7.92266 12.756 7.92666 12.226 8.23166 11.86L13.2317 5.85998C13.5847 5.43598 14.2157 5.37898 14.6407 5.73198C15.0647 6.08498 15.1217 6.71598 14.7677 7.13998L10.2927 12.511L14.6077 17.873C14.9537 18.303 14.8857 18.933 14.4547 19.279C14.2707 19.428 14.0487 19.5 13.8287 19.5Z" fill="white"/>
</mask>
<g mask="url(#mask0_2049_66412)">
<rect y="0.5" width="24" height="24" fill="#0D1C2E"/>
</g>
</svg>
