<svg width="24" height="25" viewBox="0 0 24 25" fill="none" xmlns="http://www.w3.org/2000/svg">
<path fill-rule="evenodd" clip-rule="evenodd" d="M9.9995 19.4998C9.7735 19.4998 9.5465 19.4238 9.3595 19.2678C8.9355 18.9148 8.8785 18.2838 9.2315 17.8598L13.7075 12.4888L9.3925 7.12683C9.0465 6.69683 9.1145 6.06683 9.5445 5.72083C9.9755 5.37483 10.6045 5.44283 10.9515 5.87283L15.7795 11.8728C16.0775 12.2438 16.0735 12.7738 15.7685 13.1398L10.7685 19.1398C10.5705 19.3768 10.2865 19.4998 9.9995 19.4998Z" fill="#231F20"/>
<mask id="mask0_2049_66419" style="mask-type:luminance" maskUnits="userSpaceOnUse" x="9" y="5" width="8" height="15">
<path fill-rule="evenodd" clip-rule="evenodd" d="M9.9995 19.4998C9.7735 19.4998 9.5465 19.4238 9.3595 19.2678C8.9355 18.9148 8.8785 18.2838 9.2315 17.8598L13.7075 12.4888L9.3925 7.12683C9.0465 6.69683 9.1145 6.06683 9.5445 5.72083C9.9755 5.37483 10.6045 5.44283 10.9515 5.87283L15.7795 11.8728C16.0775 12.2438 16.0735 12.7738 15.7685 13.1398L10.7685 19.1398C10.5705 19.3768 10.2865 19.4998 9.9995 19.4998Z" fill="white"/>
</mask>
<g mask="url(#mask0_2049_66419)">
<rect y="0.5" width="24" height="24" fill="#0D1C2E"/>
</g>
</svg>
