<svg width="48" height="48" viewBox="0 0 48 48" fill="none" xmlns="http://www.w3.org/2000/svg">
<path fill-rule="evenodd" clip-rule="evenodd" d="M24 16C22.346 16 21 17.346 21 19C21 20.654 22.346 22 24 22C25.654 22 27 20.654 27 19C27 17.346 25.654 16 24 16ZM24 26C20.14 26 17 22.86 17 19C17 15.14 20.14 12 24 12C27.86 12 31 15.14 31 19C31 22.86 27.86 26 24 26ZM24 4C15.178 4 8 11.108 8 19.846C8 30.794 22.098 43.004 22.698 43.518C23.074 43.84 23.536 44 24 44C24.464 44 24.926 43.84 25.302 43.518C25.902 43.004 40 30.794 40 19.846C40 11.108 32.822 4 24 4Z" fill="#231F20"/>
<mask id="mask0_301_19508" style="mask-type:luminance" maskUnits="userSpaceOnUse" x="8" y="4" width="32" height="40">
<path fill-rule="evenodd" clip-rule="evenodd" d="M24 16C22.346 16 21 17.346 21 19C21 20.654 22.346 22 24 22C25.654 22 27 20.654 27 19C27 17.346 25.654 16 24 16ZM24 26C20.14 26 17 22.86 17 19C17 15.14 20.14 12 24 12C27.86 12 31 15.14 31 19C31 22.86 27.86 26 24 26ZM24 4C15.178 4 8 11.108 8 19.846C8 30.794 22.098 43.004 22.698 43.518C23.074 43.84 23.536 44 24 44C24.464 44 24.926 43.84 25.302 43.518C25.902 43.004 40 30.794 40 19.846C40 11.108 32.822 4 24 4Z" fill="white"/>
</mask>
<g mask="url(#mask0_301_19508)">
<rect width="48" height="48" fill="#0D1C2E"/>
</g>
</svg>
