<svg width="48" height="48" viewBox="0 0 48 48" fill="none" xmlns="http://www.w3.org/2000/svg">
<path fill-rule="evenodd" clip-rule="evenodd" d="M34.8 44C17.816 44 4 30.184 4 13.2C4 8.126 8.128 4 13.2 4C13.72 4 14.234 4.044 14.732 4.13C15.218 4.208 15.708 4.332 16.182 4.496C16.834 4.722 17.322 5.268 17.476 5.94L20.216 17.868C20.366 18.524 20.176 19.212 19.71 19.7C19.436 19.984 19.43 19.99 16.95 21.288C18.958 25.636 22.448 29.114 26.71 31.054C28.008 28.572 28.016 28.564 28.3 28.292C28.79 27.824 29.48 27.642 30.134 27.786L42.062 30.524C42.732 30.678 43.278 31.166 43.504 31.816C43.668 32.288 43.79 32.776 43.872 33.278C43.956 33.772 44 34.284 44 34.8C44 39.874 39.874 44 34.8 44Z" fill="#231F20"/>
<mask id="mask0_301_19506" style="mask-type:alpha" maskUnits="userSpaceOnUse" x="4" y="4" width="40" height="40">
<path fill-rule="evenodd" clip-rule="evenodd" d="M34.8 44C17.816 44 4 30.184 4 13.2C4 8.126 8.128 4 13.2 4C13.72 4 14.234 4.044 14.732 4.13C15.218 4.208 15.708 4.332 16.182 4.496C16.834 4.722 17.322 5.268 17.476 5.94L20.216 17.868C20.366 18.524 20.176 19.212 19.71 19.7C19.436 19.984 19.43 19.99 16.95 21.288C18.958 25.636 22.448 29.114 26.71 31.054C28.008 28.572 28.016 28.564 28.3 28.292C28.79 27.824 29.48 27.642 30.134 27.786L42.062 30.524C42.732 30.678 43.278 31.166 43.504 31.816C43.668 32.288 43.79 32.776 43.872 33.278C43.956 33.772 44 34.284 44 34.8C44 39.874 39.874 44 34.8 44Z" fill="white"/>
</mask>
<g mask="url(#mask0_301_19506)">
<rect width="48" height="48" fill="#0D1C2E"/>
</g>
</svg>
