<svg width="48" height="48" viewBox="0 0 48 48" fill="none" xmlns="http://www.w3.org/2000/svg">
<path fill-rule="evenodd" clip-rule="evenodd" d="M38.0137 12L25.0037 20.936C24.3897 21.286 23.6377 21.286 23.0237 20.936L10.0137 12H38.0137ZM38.0137 8H10.0137C6.70567 8 4.01367 10.692 4.01367 14V34C4.01367 37.308 6.70567 40 10.0137 40H38.0137C41.3217 40 44.0137 37.308 44.0137 34V14C44.0137 10.692 41.3217 8 38.0137 8Z" fill="#231F20"/>
<mask id="mask0_301_19505" style="mask-type:alpha" maskUnits="userSpaceOnUse" x="4" y="8" width="41" height="32">
<path fill-rule="evenodd" clip-rule="evenodd" d="M38.0137 12L25.0037 20.936C24.3897 21.286 23.6377 21.286 23.0237 20.936L10.0137 12H38.0137ZM38.0137 8H10.0137C6.70567 8 4.01367 10.692 4.01367 14V34C4.01367 37.308 6.70567 40 10.0137 40H38.0137C41.3217 40 44.0137 37.308 44.0137 34V14C44.0137 10.692 41.3217 8 38.0137 8Z" fill="white"/>
</mask>
<g mask="url(#mask0_301_19505)">
<rect width="48" height="48" fill="#0D1C2E"/>
</g>
</svg>
