<svg width="48" height="48" viewBox="0 0 48 48" fill="none" xmlns="http://www.w3.org/2000/svg">
<path fill-rule="evenodd" clip-rule="evenodd" d="M23.992 6C28.7571 6 33.2411 7.85625 36.608 11.2312C39.975 14.6062 42 19.0821 42 23.8473C42 33.683 33.8196 41.6866 23.992 41.6866H23.9839C20.9946 41.6866 18.0616 40.9393 15.458 39.517L6 42L8.53125 32.7589C6.97232 30.0509 6.15268 26.9812 6.15268 23.8393C6.15268 14.0036 14.1562 6 23.992 6ZM16.4384 36.6161C18.7125 37.9661 21.3241 38.6813 23.992 38.6813C32.1643 38.6813 38.9866 32.0277 38.9866 23.8473C38.9946 19.8857 37.275 16.1652 34.4786 13.3607C31.6821 10.5562 27.9616 9.01339 24 9.01339C15.8196 9.01339 9.16607 15.667 9.16607 23.8393C9.16607 26.6437 9.94554 29.3679 11.4321 31.7304L11.7857 32.2929L10.2911 37.7652L15.9 36.2946L16.4384 36.6161Z" fill="#0D1C2E"/>
<path fill-rule="evenodd" clip-rule="evenodd" d="M23.992 38.6813C21.3241 38.6813 18.7125 37.9661 16.4384 36.6161L15.9 36.2946L10.2911 37.7652L11.7857 32.2929L11.4321 31.7304C9.94554 29.3679 9.16607 26.6437 9.16607 23.8393C9.16607 15.667 15.8196 9.01339 24 9.01339C27.9616 9.01339 31.6821 10.5562 34.4786 13.3607C37.275 16.1652 38.9946 19.8857 38.9866 23.8473C38.9866 32.0277 32.1643 38.6813 23.992 38.6813ZM29.0786 26.1295C29.4884 26.2741 31.6821 27.3509 32.1241 27.5759C32.5661 27.7929 32.8634 27.9054 32.9679 28.1063C33.0804 28.2911 33.0804 29.183 32.7107 30.2277C32.3411 31.2723 30.5652 32.2205 29.7054 32.3491C28.2911 32.558 27.1821 32.4536 24.3536 31.2321C19.8777 29.2955 16.9607 24.7955 16.7357 24.4982C16.5188 24.2009 14.9196 22.0795 14.9196 19.8857C14.9196 17.692 16.0687 16.6152 16.4786 16.1652C16.8884 15.7232 17.3705 15.6107 17.6679 15.6107C17.9652 15.6107 18.2625 15.6107 18.5196 15.6268C18.7929 15.6429 19.1625 15.5223 19.5241 16.3902C19.8938 17.2821 20.7857 19.4759 20.8982 19.7009C21.0107 19.9259 21.083 20.183 20.9384 20.4804C20.0866 22.1839 19.1705 22.1277 19.6286 22.9152C21.3562 25.8804 23.0759 26.9089 25.6955 28.2188C26.1375 28.4438 26.4027 28.4036 26.6598 28.1063C26.925 27.8009 27.7768 26.8045 28.0741 26.3545C28.3714 25.9045 28.6688 25.9768 29.0786 26.1295Z" fill="#0D1C2E"/>
</svg>
