<svg width="54" height="48" viewBox="0 0 54 48" fill="none" xmlns="http://www.w3.org/2000/svg">
<path d="M51.5306 11.6328C50.9417 9.41559 49.2068 7.66941 47.004 7.07681C43.0111 6 27.0004 6 27.0004 6C27.0004 6 10.9898 6 6.99689 7.07681C4.79405 7.6695 3.05911 9.41559 2.47027 11.6328C1.40039 15.6516 1.40039 24.0364 1.40039 24.0364C1.40039 24.0364 1.40039 32.4212 2.47027 36.44C3.05911 38.6572 4.79405 40.3306 6.99689 40.9232C10.9898 42 27.0004 42 27.0004 42C27.0004 42 43.011 42 47.004 40.9232C49.2068 40.3306 50.9417 38.6572 51.5306 36.44C52.6005 32.4212 52.6005 24.0364 52.6005 24.0364C52.6005 24.0364 52.6005 15.6516 51.5306 11.6328ZM21.764 31.6492V16.4236L35.1458 24.0366L21.764 31.6492Z" fill="black"/>
</svg>
