<svg width="20" height="20" viewBox="0 0 20 20" fill="none" xmlns="http://www.w3.org/2000/svg">
<path fill-rule="evenodd" clip-rule="evenodd" d="M9.99927 13.3333C9.80927 13.3333 9.62011 13.2692 9.46594 13.14L4.46594 8.97334C4.11261 8.67917 4.06427 8.15334 4.35927 7.80001C4.65344 7.44667 5.17844 7.39917 5.53261 7.69334L10.0084 11.4233L14.4768 7.82751C14.8351 7.53917 15.3601 7.59584 15.6484 7.95417C15.9368 8.31251 15.8801 8.83667 15.5218 9.12584L10.5218 13.1492C10.3693 13.2717 10.1843 13.3333 9.99927 13.3333Z" fill="black"/>
<mask id="mask0_2090_25593" style="mask-type:luminance" maskUnits="userSpaceOnUse" x="4" y="7" width="12" height="7">
<path fill-rule="evenodd" clip-rule="evenodd" d="M9.99927 13.3333C9.80927 13.3333 9.62011 13.2692 9.46594 13.14L4.46594 8.97334C4.11261 8.67917 4.06427 8.15334 4.35927 7.80001C4.65344 7.44667 5.17844 7.39917 5.53261 7.69334L10.0084 11.4233L14.4768 7.82751C14.8351 7.53917 15.3601 7.59584 15.6484 7.95417C15.9368 8.31251 15.8801 8.83667 15.5218 9.12584L10.5218 13.1492C10.3693 13.2717 10.1843 13.3333 9.99927 13.3333Z" fill="white"/>
</mask>
<g mask="url(#mask0_2090_25593)">
<rect width="20" height="20" fill="black"/>
</g>
</svg>
