<svg width="32" height="32" viewBox="0 0 32 32" fill="none" xmlns="http://www.w3.org/2000/svg">
<path fill-rule="evenodd" clip-rule="evenodd" d="M21.8425 18.6667H11.6852L9.5025 10.6667H25.8425L21.8425 18.6667ZM28.1105 9.264C27.6212 8.472 26.7732 8 25.8425 8H8.77584L7.95317 4.98267C7.7945 4.40267 7.26784 4 6.6665 4H3.99984C3.2625 4 2.6665 4.59733 2.6665 5.33333C2.6665 6.06933 3.2625 6.66667 3.99984 6.66667H5.64784L9.37984 20.3507C9.5385 20.9307 10.0652 21.3333 10.6665 21.3333H22.6665C23.1718 21.3333 23.6332 21.048 23.8598 20.596L28.2278 11.8587C28.6452 11.0253 28.5998 10.056 28.1105 9.264ZM10.0001 24C8.8961 24 8.0001 24.8947 8.0001 26C8.0001 27.1053 8.8961 28 10.0001 28C11.1041 28 12.0001 27.1053 12.0001 26C12.0001 24.8947 11.1041 24 10.0001 24ZM21.3334 26C21.3334 24.8947 22.2294 24 23.3334 24C24.4374 24 25.3334 24.8947 25.3334 26C25.3334 27.1053 24.4374 28 23.3334 28C22.2294 28 21.3334 27.1053 21.3334 26Z" fill="#231F20"/>
<mask id="mask0_2002_91025" style="mask-type:luminance" maskUnits="userSpaceOnUse" x="2" y="4" width="27" height="24">
<path fill-rule="evenodd" clip-rule="evenodd" d="M21.8425 18.6667H11.6852L9.5025 10.6667H25.8425L21.8425 18.6667ZM28.1105 9.264C27.6212 8.472 26.7732 8 25.8425 8H8.77584L7.95317 4.98267C7.7945 4.40267 7.26784 4 6.6665 4H3.99984C3.2625 4 2.6665 4.59733 2.6665 5.33333C2.6665 6.06933 3.2625 6.66667 3.99984 6.66667H5.64784L9.37984 20.3507C9.5385 20.9307 10.0652 21.3333 10.6665 21.3333H22.6665C23.1718 21.3333 23.6332 21.048 23.8598 20.596L28.2278 11.8587C28.6452 11.0253 28.5998 10.056 28.1105 9.264ZM10.0001 24C8.8961 24 8.0001 24.8947 8.0001 26C8.0001 27.1053 8.8961 28 10.0001 28C11.1041 28 12.0001 27.1053 12.0001 26C12.0001 24.8947 11.1041 24 10.0001 24ZM21.3334 26C21.3334 24.8947 22.2294 24 23.3334 24C24.4374 24 25.3334 24.8947 25.3334 26C25.3334 27.1053 24.4374 28 23.3334 28C22.2294 28 21.3334 27.1053 21.3334 26Z" fill="white"/>
</mask>
<g mask="url(#mask0_2002_91025)">
<rect width="32" height="32" fill="#0D1C2E"/>
</g>
</svg>
