<svg width="32" height="32" viewBox="0 0 32 32" fill="none" xmlns="http://www.w3.org/2000/svg">
<path fill-rule="evenodd" clip-rule="evenodd" d="M17.8857 15.9998L23.6097 10.2758C24.131 9.75451 24.131 8.91185 23.6097 8.39051C23.0883 7.86918 22.2457 7.86918 21.7243 8.39051L16.0003 14.1145L10.2763 8.39051C9.755 7.86918 8.91233 7.86918 8.391 8.39051C7.86967 8.91185 7.86967 9.75451 8.391 10.2758L14.115 15.9998L8.391 21.7238C7.86967 22.2452 7.86967 23.0878 8.391 23.6092C8.651 23.8692 8.99233 23.9998 9.33367 23.9998C9.675 23.9998 10.0163 23.8692 10.2763 23.6092L16.0003 17.8852L21.7243 23.6092C21.9843 23.8692 22.3257 23.9998 22.667 23.9998C23.0083 23.9998 23.3497 23.8692 23.6097 23.6092C24.131 23.0878 24.131 22.2452 23.6097 21.7238L17.8857 15.9998Z" fill="#231F20"/>
<mask id="mask0_2239_91009" style="mask-type:luminance" maskUnits="userSpaceOnUse" x="8" y="7" width="16" height="17">
<path fill-rule="evenodd" clip-rule="evenodd" d="M17.8857 15.9998L23.6097 10.2758C24.131 9.75451 24.131 8.91185 23.6097 8.39051C23.0883 7.86918 22.2457 7.86918 21.7243 8.39051L16.0003 14.1145L10.2763 8.39051C9.755 7.86918 8.91233 7.86918 8.391 8.39051C7.86967 8.91185 7.86967 9.75451 8.391 10.2758L14.115 15.9998L8.391 21.7238C7.86967 22.2452 7.86967 23.0878 8.391 23.6092C8.651 23.8692 8.99233 23.9998 9.33367 23.9998C9.675 23.9998 10.0163 23.8692 10.2763 23.6092L16.0003 17.8852L21.7243 23.6092C21.9843 23.8692 22.3257 23.9998 22.667 23.9998C23.0083 23.9998 23.3497 23.8692 23.6097 23.6092C24.131 23.0878 24.131 22.2452 23.6097 21.7238L17.8857 15.9998Z" fill="white"/>
</mask>
<g mask="url(#mask0_2239_91009)">
<rect width="32" height="32" fill="#0D1C2E"/>
</g>
</svg>
