<svg width="32" height="32" viewBox="0 0 32 32" fill="none" xmlns="http://www.w3.org/2000/svg">
<path fill-rule="evenodd" clip-rule="evenodd" d="M9.62624 8C8.47424 8 7.39424 8.44533 6.58624 9.25467C4.90891 10.9347 4.90891 13.6693 6.58757 15.352L15.9996 24.78L25.4129 15.352C27.0916 13.6693 27.0916 10.9347 25.4129 9.25467C23.7969 7.63467 20.9489 7.63733 19.3329 9.25467L16.9436 11.648C16.4422 12.1507 15.5569 12.1507 15.0556 11.648L12.6662 9.25333C11.8582 8.44533 10.7796 8 9.62624 8ZM15.9996 28C15.6462 28 15.3062 27.86 15.0569 27.608L4.69957 17.2347C1.98491 14.5147 1.98491 10.0893 4.69957 7.36933C6.01157 6.05733 7.76091 5.33333 9.62624 5.33333C11.4916 5.33333 13.2422 6.05733 14.5529 7.36933L15.9996 8.81867L17.4462 7.37067C18.7582 6.05733 20.5076 5.33333 22.3742 5.33333C24.2382 5.33333 25.9889 6.05733 27.2996 7.36933C30.0156 10.0893 30.0156 14.5147 27.3009 17.2347L16.9436 27.6093C16.6929 27.86 16.3542 28 15.9996 28Z" fill="#231F20"/>
<mask id="mask0_2002_91042" style="mask-type:luminance" maskUnits="userSpaceOnUse" x="2" y="5" width="28" height="23">
<path fill-rule="evenodd" clip-rule="evenodd" d="M9.62624 8C8.47424 8 7.39424 8.44533 6.58624 9.25467C4.90891 10.9347 4.90891 13.6693 6.58757 15.352L15.9996 24.78L25.4129 15.352C27.0916 13.6693 27.0916 10.9347 25.4129 9.25467C23.7969 7.63467 20.9489 7.63733 19.3329 9.25467L16.9436 11.648C16.4422 12.1507 15.5569 12.1507 15.0556 11.648L12.6662 9.25333C11.8582 8.44533 10.7796 8 9.62624 8ZM15.9996 28C15.6462 28 15.3062 27.86 15.0569 27.608L4.69957 17.2347C1.98491 14.5147 1.98491 10.0893 4.69957 7.36933C6.01157 6.05733 7.76091 5.33333 9.62624 5.33333C11.4916 5.33333 13.2422 6.05733 14.5529 7.36933L15.9996 8.81867L17.4462 7.37067C18.7582 6.05733 20.5076 5.33333 22.3742 5.33333C24.2382 5.33333 25.9889 6.05733 27.2996 7.36933C30.0156 10.0893 30.0156 14.5147 27.3009 17.2347L16.9436 27.6093C16.6929 27.86 16.3542 28 15.9996 28Z" fill="white"/>
</mask>
<g mask="url(#mask0_2002_91042)">
<rect width="32" height="32" fill="#0D1C2E"/>
</g>
</svg>
