<svg width="32" height="32" viewBox="0 0 32 32" fill="none" xmlns="http://www.w3.org/2000/svg">
<rect x="0.5" y="0.5" width="31" height="31" stroke="black"/>
<path d="M14.96 11.6H15.836V20H14.96V11.6ZM9.70405 20H8.81605V11.6H9.70405V20ZM15.044 16.124H9.60805V15.344H15.044V16.124ZM21.1738 20.06C20.5178 20.06 19.9418 19.924 19.4458 19.652C18.9498 19.372 18.5618 18.992 18.2818 18.512C18.0018 18.024 17.8618 17.468 17.8618 16.844C17.8618 16.22 17.9938 15.668 18.2578 15.188C18.5298 14.708 18.8978 14.332 19.3618 14.06C19.8338 13.78 20.3618 13.64 20.9458 13.64C21.5378 13.64 22.0618 13.776 22.5178 14.048C22.9818 14.312 23.3458 14.688 23.6098 15.176C23.8738 15.656 24.0058 16.212 24.0058 16.844C24.0058 16.884 24.0018 16.928 23.9938 16.976C23.9938 17.016 23.9938 17.06 23.9938 17.108H18.5098V16.472H23.5378L23.2018 16.724C23.2018 16.268 23.1018 15.864 22.9018 15.512C22.7098 15.152 22.4458 14.872 22.1098 14.672C21.7738 14.472 21.3858 14.372 20.9458 14.372C20.5138 14.372 20.1258 14.472 19.7818 14.672C19.4378 14.872 19.1698 15.152 18.9778 15.512C18.7858 15.872 18.6898 16.284 18.6898 16.748V16.88C18.6898 17.36 18.7938 17.784 19.0018 18.152C19.2178 18.512 19.5138 18.796 19.8898 19.004C20.2738 19.204 20.7098 19.304 21.1978 19.304C21.5818 19.304 21.9378 19.236 22.2658 19.1C22.6018 18.964 22.8898 18.756 23.1298 18.476L23.6098 19.028C23.3298 19.364 22.9778 19.62 22.5538 19.796C22.1378 19.972 21.6778 20.06 21.1738 20.06Z" fill="black"/>
</svg>
