<svg width="32" height="32" viewBox="0 0 32 32" fill="none" xmlns="http://www.w3.org/2000/svg">
<path fill-rule="evenodd" clip-rule="evenodd" d="M21.3334 9.33333C21.3334 12.2747 18.9414 14.6667 16.0001 14.6667C13.0587 14.6667 10.6667 12.2747 10.6667 9.33333C10.6667 6.392 13.0587 4 16.0001 4C18.9414 4 21.3334 6.392 21.3334 9.33333ZM25.3334 26.6667C25.3334 27.4027 24.7374 28 24.0001 28H8.00008C7.26275 28 6.66675 27.4027 6.66675 26.6667C6.66675 21.52 10.8547 17.3333 16.0001 17.3333C21.1454 17.3333 25.3334 21.52 25.3334 26.6667Z" fill="#231F20"/>
<mask id="mask0_2002_91014" style="mask-type:luminance" maskUnits="userSpaceOnUse" x="6" y="4" width="20" height="24">
<path fill-rule="evenodd" clip-rule="evenodd" d="M21.3334 9.33333C21.3334 12.2747 18.9414 14.6667 16.0001 14.6667C13.0587 14.6667 10.6667 12.2747 10.6667 9.33333C10.6667 6.392 13.0587 4 16.0001 4C18.9414 4 21.3334 6.392 21.3334 9.33333ZM25.3334 26.6667C25.3334 27.4027 24.7374 28 24.0001 28H8.00008C7.26275 28 6.66675 27.4027 6.66675 26.6667C6.66675 21.52 10.8547 17.3333 16.0001 17.3333C21.1454 17.3333 25.3334 21.52 25.3334 26.6667Z" fill="white"/>
</mask>
<g mask="url(#mask0_2002_91014)">
<rect width="32" height="32" fill="#0D1C2E"/>
</g>
</svg>
