<svg width="164" height="48" viewBox="0 0 164 48" fill="none" xmlns="http://www.w3.org/2000/svg">
<g clip-path="url(#clip0_2002_90995)">
<path d="M41 43.6831H0V48H41V43.6831Z" fill="#770F00"/>
<path d="M82 43.6831H41V48H82V43.6831Z" fill="#EFD500"/>
<path d="M123 43.6831H82V48H123V43.6831Z" fill="#E5A100"/>
<path d="M164 43.6831H123V48H164V43.6831Z" fill="#CD1719"/>
<path d="M155.258 21.9957C151.688 21.9957 150.333 20.5567 150.333 17.6788H163.754L164 14.9036C164 9.25054 161.045 6.68094 155.012 6.68094C149.102 6.68094 145.655 9.66167 145.655 16.2398C145.655 22.6124 148.117 25.4904 154.643 25.4904C158.459 25.4904 163.384 24.6681 163.384 24.6681L163.261 21.7902C163.261 21.6874 158.706 21.9957 155.258 21.9957ZM10.2192 25.0792C19.9459 25.0792 22.039 20.1456 22.039 12.334C22.039 4.62527 19.6997 0.411135 10.2192 0.411135H0V25.0792H10.2192ZM17.1141 12.334C17.1141 17.6788 16.2523 21.5846 10.2192 21.5846H4.8018V3.90578H10.2192C16.1291 3.90578 17.1141 6.88651 17.1141 12.334ZM26.7177 25.0792H31.3964V12.5396C31.3964 12.5396 34.7207 11.3062 38.6607 10.5867V6.68094C35.0901 7.19486 31.3964 9.25054 31.3964 9.25054V7.09208H26.7177V25.0792ZM38.6607 20.8651H43.3393V24.9764H38.6607V20.8651ZM67.2252 0.82227C67.2252 0.82227 61.6847 0 57.8679 0C51.958 0 48.018 2.05567 48.018 6.98929C48.018 11.3062 50.7267 12.848 57.1291 14.2869C61.6847 15.212 63.039 15.9315 63.039 17.9872C63.039 20.5567 61.3153 21.8929 57.7448 21.8929C54.6667 21.8929 48.8799 21.2762 48.8799 21.2762L48.3874 24.4625C48.3874 24.4625 54.1742 25.3876 57.991 25.3876C63.7778 25.3876 67.8408 23.0236 67.8408 17.6788C67.8408 13.4647 65.6246 12.1285 59.3453 10.6895C54.2973 9.55889 52.6967 9.04497 52.6967 6.68094C52.6967 4.52248 54.5435 3.49465 58.1141 3.49465C60.5766 3.49465 66.6096 4.11135 66.6096 4.11135L67.2252 0.82227ZM82.2463 6.68094C75.1051 6.68094 72.6426 10.1756 72.6426 15.9315C72.6426 21.8929 74.8589 25.3876 82.2463 25.3876C89.6336 25.3876 91.8499 21.8929 91.8499 15.9315C91.8499 10.1756 89.3874 6.68094 82.2463 6.68094ZM82.2463 22.0985C78.1832 22.0985 77.3213 20.0428 77.3213 15.9315C77.3213 11.7173 78.4294 9.97002 82.2463 9.97002C86.0631 9.97002 87.1712 11.7173 87.1712 15.9315C87.0481 20.1456 86.1862 22.0985 82.2463 22.0985ZM96.5285 25.0792H101.207V12.5396C101.207 12.5396 104.532 11.3062 108.471 10.5867V6.68094C104.778 7.19486 101.207 9.25054 101.207 9.25054V7.09208H96.5285V25.0792ZM123.246 6.68094C120.784 6.68094 117.829 7.70878 117.829 7.70878V0H113.15V25.0792C113.15 25.0792 118.691 25.4904 121.03 25.4904C128.787 25.4904 131.495 23.3319 131.495 15.8287C131.619 9.04497 129.033 6.68094 123.246 6.68094ZM121.03 21.9957C120.168 21.9957 117.829 21.8929 117.829 21.8929V10.8951C117.829 10.8951 120.414 10.1756 122.631 10.1756C125.462 10.1756 126.817 11.7173 126.817 15.8287C126.817 20.1456 125.832 21.9957 121.03 21.9957ZM136.297 25.0792H140.976V7.09208H136.297V25.0792ZM136.297 0H140.976V4.11135H136.297V0ZM150.333 14.6981C150.333 11.2034 151.811 9.86724 155.012 9.86724C158.213 9.86724 159.444 11.1006 159.444 14.6981H150.333Z" fill="#939292"/>
<path d="M0 30.424V38.3383H3.57057C5.29429 38.3383 6.52553 37.8244 6.52553 36.1799C6.52553 35.0492 5.78679 34.5353 4.92492 34.3298C5.66366 34.0214 6.15616 33.5075 6.15616 32.4797C6.15616 31.1435 5.17117 30.5268 3.32432 30.5268H0V30.424ZM3.44745 34.6381C4.18619 34.6381 5.54054 34.7409 5.54054 36.1799C5.54054 37.4133 4.67868 37.7216 3.44745 37.7216H0.861862V34.6381H3.44745ZM3.32432 31.0407C4.67868 31.0407 5.29429 31.4518 5.29429 32.4797C5.29429 33.5075 4.8018 34.0214 3.44745 34.0214H0.861862V31.0407H3.32432ZM8.24925 38.3383H9.11111V32.6852H8.24925V38.3383ZM8.24925 31.2463H9.11111V30.424H8.24925V31.2463ZM13.6667 32.4797C11.5736 32.4797 10.8348 33.3019 10.8348 35.3576C10.8348 37.5161 11.4505 38.4411 13.6667 38.4411C15.8829 38.4411 16.4985 37.5161 16.4985 35.3576C16.4985 33.4047 15.7598 32.4797 13.6667 32.4797ZM13.6667 37.8244C11.9429 37.8244 11.6967 37.1049 11.6967 35.3576C11.6967 33.6103 12.1892 33.0964 13.6667 33.0964C15.2673 33.0964 15.6366 33.7131 15.6366 35.3576C15.6366 37.1049 15.3904 37.8244 13.6667 37.8244ZM26.7177 30.5268C26.7177 30.5268 24.994 30.3212 23.8859 30.3212C22.039 30.3212 20.9309 30.9379 20.9309 32.3769C20.9309 33.9186 21.9159 34.3298 23.8859 34.6381C25.4865 34.8437 26.1021 35.152 26.1021 36.0771C26.1021 37.3105 25.3634 37.8244 24.009 37.8244C23.024 37.8244 21.1772 37.6188 21.1772 37.6188L21.0541 38.2355C21.0541 38.2355 22.9009 38.4411 24.009 38.4411C25.8559 38.4411 26.964 37.8244 26.964 36.0771C26.964 34.6381 26.1021 34.3298 24.2553 34.0214C22.5315 33.7131 21.9159 33.6103 21.9159 32.3769C21.9159 31.349 22.6547 30.9379 24.1321 30.9379C24.8709 30.9379 26.8408 31.1435 26.8408 31.1435L26.7177 30.5268ZM31.1501 32.4797C29.1802 32.4797 28.3183 33.3019 28.3183 35.3576C28.3183 37.6188 28.9339 38.4411 31.1501 38.4411C31.7658 38.4411 32.997 38.3383 32.997 38.3383V37.7216C32.997 37.7216 31.8889 37.8244 31.3964 37.8244C29.6727 37.8244 29.3033 37.2077 29.3033 35.3576C29.3033 33.7131 29.7958 33.0964 31.3964 33.0964C31.8889 33.0964 32.997 33.1991 32.997 33.1991V32.5824C32.8739 32.6852 31.7658 32.4797 31.1501 32.4797ZM34.4745 38.3383H35.3363V32.6852H34.4745V38.3383ZM34.4745 31.2463H35.3363V30.424H34.4745V31.2463ZM39.7688 37.8244C38.2913 37.8244 37.9219 37.1049 37.9219 35.7687H42.6006V35.2548C42.6006 33.3019 41.6156 32.5824 39.8919 32.5824C38.2913 32.5824 37.0601 33.4047 37.0601 35.5632C37.0601 37.4133 37.6757 38.4411 39.6456 38.5439C40.7538 38.5439 42.2312 38.3383 42.2312 38.3383V37.8244C42.2312 37.7216 40.7538 37.8244 39.7688 37.8244ZM37.9219 35.152C37.9219 33.6103 38.6607 33.0964 39.8919 33.0964C41.1231 33.0964 41.7387 33.6103 41.7387 35.152H37.9219ZM45.0631 38.3383V33.6103C45.0631 33.6103 46.048 33.0964 47.1562 33.0964C48.5105 33.0964 48.7568 33.6103 48.7568 35.3576V38.3383H49.6186V35.3576C49.6186 33.3019 49.2492 32.5824 47.4024 32.5824C46.2943 32.5824 45.1862 33.0964 45.1862 33.0964V32.6852H44.3243V38.3383H45.0631ZM54.0511 32.4797C52.0811 32.4797 51.2192 33.3019 51.2192 35.3576C51.2192 37.6188 51.8348 38.4411 54.0511 38.4411C54.6667 38.4411 55.8979 38.3383 55.8979 38.3383V37.7216C55.8979 37.7216 54.7898 37.8244 54.2973 37.8244C52.5736 37.8244 52.2042 37.2077 52.2042 35.3576C52.2042 33.7131 52.6967 33.0964 54.2973 33.0964C54.7898 33.0964 55.8979 33.1991 55.8979 33.1991V32.5824C55.7748 32.6852 54.5435 32.4797 54.0511 32.4797ZM59.7147 37.8244C58.2372 37.8244 57.8679 37.1049 57.8679 35.7687H62.5465V35.2548C62.5465 33.3019 61.5616 32.5824 59.8378 32.5824C58.2372 32.5824 57.006 33.4047 57.006 35.5632C57.006 37.4133 57.6216 38.4411 59.5916 38.5439C60.6997 38.5439 62.1772 38.3383 62.1772 38.3383V37.8244C62.1772 37.7216 60.6997 37.8244 59.7147 37.8244ZM57.7447 35.152C57.7447 33.6103 58.4835 33.0964 59.7147 33.0964C60.9459 33.0964 61.5616 33.6103 61.5616 35.152H57.7447ZM67.2252 38.3383H68.0871V34.9465H72.1501V34.3298H68.0871V31.0407H72.7658V30.424H67.2252V38.3383ZM76.5826 32.4797C74.4895 32.4797 73.7508 33.3019 73.7508 35.3576C73.7508 37.5161 74.3664 38.4411 76.5826 38.4411C78.7988 38.4411 79.4144 37.5161 79.4144 35.3576C79.4144 33.4047 78.6757 32.4797 76.5826 32.4797ZM76.5826 37.8244C74.8589 37.8244 74.6126 37.1049 74.6126 35.3576C74.6126 33.6103 75.1051 33.0964 76.5826 33.0964C78.1832 33.0964 78.5526 33.7131 78.5526 35.3576C78.5526 37.1049 78.3063 37.8244 76.5826 37.8244ZM81.1381 38.3383H82V34.1242C82 34.1242 83.2312 33.5075 84.5856 33.3019V32.5824C83.2312 32.788 82 33.5075 82 33.5075V32.6852H81.1381V38.3383ZM92.4655 35.5632C94.4354 35.5632 95.4204 34.6381 95.4204 32.8908C95.4204 31.2463 94.5586 30.424 92.4655 30.424H89.018V38.3383H89.8799V35.5632H92.4655ZM89.7568 34.9465V31.0407H92.3423C93.8198 31.0407 94.4354 31.6574 94.4354 32.8908C94.4354 34.1242 93.8198 34.9465 92.3423 34.9465H89.7568ZM96.8979 38.3383H97.7598V34.1242C97.7598 34.1242 98.991 33.5075 100.345 33.3019V32.5824C98.991 32.788 97.7598 33.5075 97.7598 33.5075V32.6852H96.8979V38.3383ZM103.916 32.4797C101.823 32.4797 101.084 33.3019 101.084 35.3576C101.084 37.5161 101.7 38.4411 103.916 38.4411C106.132 38.4411 106.748 37.5161 106.748 35.3576C106.748 33.4047 106.009 32.4797 103.916 32.4797ZM103.916 37.8244C102.192 37.8244 101.946 37.1049 101.946 35.3576C101.946 33.6103 102.438 33.0964 103.916 33.0964C105.517 33.0964 105.886 33.7131 105.886 35.3576C105.886 37.1049 105.64 37.8244 103.916 37.8244ZM109.58 33.1991H111.673V32.5824H109.58V31.9657C109.58 30.8351 109.826 30.5268 110.688 30.5268C111.057 30.5268 111.919 30.5268 111.919 30.5268V29.9101C111.919 29.9101 111.057 29.8073 110.565 29.8073C109.21 29.8073 108.718 30.2184 108.718 31.863V32.4797H107.856V33.0964H108.718V38.1328H109.58V33.1991ZM115.12 37.8244C113.643 37.8244 113.273 37.1049 113.273 35.7687H117.952V35.2548C117.952 33.3019 116.967 32.5824 115.243 32.5824C113.643 32.5824 112.411 33.4047 112.411 35.5632C112.411 37.4133 113.027 38.4411 114.997 38.5439C116.105 38.5439 117.583 38.3383 117.583 38.3383V37.8244C117.706 37.7216 116.105 37.8244 115.12 37.8244ZM113.273 35.152C113.273 33.6103 114.012 33.0964 115.243 33.0964C116.474 33.0964 117.09 33.6103 117.09 35.152H113.273ZM123.985 32.6852C123.985 32.6852 122.631 32.4797 121.523 32.4797C120.291 32.4797 119.06 32.8908 119.06 34.1242C119.06 35.2548 119.799 35.4604 121.399 35.666C122.877 35.8715 123.369 35.9743 123.369 36.6938C123.369 37.6188 122.631 37.8244 121.523 37.8244C120.784 37.8244 119.306 37.6188 119.306 37.6188V38.2355C119.306 38.2355 120.784 38.4411 121.646 38.4411C123.246 38.4411 124.231 38.03 124.231 36.6938C124.231 35.5632 123.616 35.3576 121.892 35.152C120.414 34.9465 120.045 34.7409 120.045 34.227C120.045 33.4047 120.784 33.3019 121.646 33.3019C122.508 33.3019 123.985 33.5075 123.985 33.5075V32.6852ZM130.387 32.6852C130.387 32.6852 129.033 32.4797 127.925 32.4797C126.694 32.4797 125.462 32.8908 125.462 34.1242C125.462 35.2548 126.201 35.4604 127.802 35.666C129.279 35.8715 129.772 35.9743 129.772 36.6938C129.772 37.6188 129.033 37.8244 127.925 37.8244C127.186 37.8244 125.709 37.6188 125.709 37.6188V38.2355C125.709 38.2355 127.186 38.4411 128.048 38.4411C129.649 38.4411 130.634 38.03 130.634 36.6938C130.634 35.5632 130.018 35.3576 128.294 35.152C126.817 34.9465 126.447 34.7409 126.447 34.227C126.447 33.4047 127.186 33.3019 128.048 33.3019C128.91 33.3019 130.387 33.5075 130.387 33.5075V32.6852ZM132.234 38.3383H133.096V32.6852H132.234V38.3383ZM132.234 31.2463H133.096V30.424H132.234V31.2463ZM137.652 32.4797C135.559 32.4797 134.82 33.3019 134.82 35.3576C134.82 37.5161 135.435 38.4411 137.652 38.4411C139.868 38.4411 140.483 37.5161 140.483 35.3576C140.483 33.4047 139.745 32.4797 137.652 32.4797ZM137.652 37.8244C135.928 37.8244 135.682 37.1049 135.682 35.3576C135.682 33.6103 136.174 33.0964 137.652 33.0964C139.252 33.0964 139.622 33.7131 139.622 35.3576C139.622 37.1049 139.375 37.8244 137.652 37.8244ZM143.069 38.3383V33.6103C143.069 33.6103 144.054 33.0964 145.162 33.0964C146.517 33.0964 146.763 33.6103 146.763 35.3576V38.3383H147.625V35.3576C147.625 33.3019 147.255 32.5824 145.408 32.5824C144.3 32.5824 143.192 33.0964 143.192 33.0964V32.6852H142.33V38.3383H143.069ZM154.15 34.3298C154.15 33.0964 153.535 32.4797 152.057 32.4797C150.949 32.4797 149.471 32.6852 149.471 32.6852V33.1991C149.471 33.1991 151.072 32.9936 152.057 32.9936C152.919 32.9936 153.411 33.3019 153.411 34.227V34.7409L151.072 34.9465C149.718 35.0492 149.102 35.5632 149.102 36.591C149.102 37.7216 149.718 38.3383 150.949 38.3383C152.18 38.3383 153.535 37.8244 153.535 37.8244C153.904 38.1328 154.396 38.2355 155.012 38.2355V37.7216C154.52 37.7216 154.15 37.5161 154.15 37.2077V34.3298ZM153.411 35.3576V37.4133C153.411 37.4133 152.18 37.8244 151.072 37.8244C150.333 37.8244 149.964 37.4133 149.964 36.6938C149.964 35.9743 150.333 35.6659 151.195 35.5632L153.411 35.3576ZM156.366 38.3383H157.228V30.1156H156.366V38.3383ZM163.754 32.6852C163.754 32.6852 162.399 32.4797 161.291 32.4797C160.06 32.4797 158.829 32.8908 158.829 34.1242C158.829 35.2548 159.568 35.4604 161.168 35.666C162.646 35.8715 163.138 35.9743 163.138 36.6938C163.138 37.6188 162.399 37.8244 161.291 37.8244C160.553 37.8244 159.075 37.6188 159.075 37.6188V38.2355C159.075 38.2355 160.553 38.4411 161.414 38.4411C163.015 38.4411 164 38.03 164 36.6938C164 35.5632 163.384 35.3576 161.661 35.152C160.183 34.9465 159.814 34.7409 159.814 34.227C159.814 33.4047 160.553 33.3019 161.414 33.3019C162.276 33.3019 163.754 33.5075 163.754 33.5075V32.6852Z" fill="#3C1C11"/>
</g>
<defs>
<clipPath id="clip0_2002_90995">
<rect width="164" height="48" fill="white"/>
</clipPath>
</defs>
</svg>
