<svg width="24" height="25" viewBox="0 0 24 25" fill="none" xmlns="http://www.w3.org/2000/svg">
<path fill-rule="evenodd" clip-rule="evenodd" d="M11.9999 16.5C11.7719 16.5 11.5449 16.423 11.3599 16.268L5.35991 11.268C4.93591 10.915 4.87791 10.284 5.23191 9.85998C5.58491 9.43598 6.21491 9.37898 6.63991 9.73198L12.0109 14.208L17.3729 9.89298C17.8029 9.54698 18.4329 9.61498 18.7789 10.045C19.1249 10.475 19.0569 11.104 18.6269 11.451L12.6269 16.279C12.4439 16.426 12.2219 16.5 11.9999 16.5Z" fill="#231F20"/>
<mask id="mask0_2023_63368" style="mask-type:luminance" maskUnits="userSpaceOnUse" x="5" y="9" width="14" height="8">
<path fill-rule="evenodd" clip-rule="evenodd" d="M11.9999 16.5C11.7719 16.5 11.5449 16.423 11.3599 16.268L5.35991 11.268C4.93591 10.915 4.87791 10.284 5.23191 9.85998C5.58491 9.43598 6.21491 9.37898 6.63991 9.73198L12.0109 14.208L17.3729 9.89298C17.8029 9.54698 18.4329 9.61498 18.7789 10.045C19.1249 10.475 19.0569 11.104 18.6269 11.451L12.6269 16.279C12.4439 16.426 12.2219 16.5 11.9999 16.5Z" fill="white"/>
</mask>
<g mask="url(#mask0_2023_63368)">
<rect y="0.5" width="24" height="24" fill="#0D1C2E"/>
</g>
</svg>
